<?xml version="1.0" encoding="UTF-8"?>
<svg width="604px" height="368px" viewBox="0 0 604 368" version="1.1" xmlns="http://www.w3.org/2000/svg" xmlns:xlink="http://www.w3.org/1999/xlink">
    <title>left</title>
    <defs>
        <polygon id="path-1" points="0 0 37.9371901 0 37.9371901 38 0 38"></polygon>
        <polygon id="path-3" points="0 368 604 368 604 0 0 0"></polygon>
    </defs>
    <g id="Page-1" stroke="none" strokeWidth="1" fill="none" fillRule="evenodd">
        <g id="signin" transform="translate(-165.000000, -266.000000)">
            <g id="illustration" transform="translate(165.000000, 266.000000)">
                <path d="M23.3388595,175.497 C23.3797917,175.497 23.420724,175.5 23.4616562,175.503 C23.5025884,175.5 23.5435207,175.497 23.5834545,175.497 L23.3388595,175.497 Z" id="Fill-1" fill="#82C9C0"></path>
                <path d="M23.9608642,175 C13.9723701,175.882619 0.911615479,242.670167 6.21470985,260.509219 C10.8530935,276.104879 23.9608642,279 23.9608642,279 C23.9608642,279 37.068635,276.104879 41.7053974,260.509219 C47.010113,242.670167 33.9477372,175.882619 23.9608642,175" id="Fill-3" fill="#46A0F8"></path>
                <path d="M334.945455,197 C315.923981,197 300.502479,212.447034 300.502479,231.5 C300.502479,250.55459 315.923981,266 334.945455,266 C353.96855,266 369.38843,250.55459 369.38843,231.5 C369.38843,212.447034 353.96855,197 334.945455,197" id="Fill-5" fill="#46A0F8"></path>
                <path d="M86.900985,256.045845 C86.718316,255.84968 86.6194401,256.356172 86.6194401,256.356172 C82.8537774,260.541567 62.1334156,284.920727 86.7166401,288.927644 L86.7166401,289 C86.7870263,288.988745 86.8557367,288.974273 86.9261229,288.96141 C87.009916,288.974273 87.0937091,288.988745 87.1791781,289 L87.1791781,288.911565 C111.422203,284.119987 90.9280821,260.432229 87.1791781,256.346525 C87.1791781,256.346525 87.0803022,255.84968 86.900985,256.045845" id="Fill-7" fill="#46A0F8"></path>
                <path d="M503.938276,133.899394 C504.977701,131.363502 502.182469,128.265862 500.912062,126.254803 C499.532857,124.070405 498.153653,121.884402 496.774449,119.700004 C495.75511,118.083774 493.107172,119.55716 494.131533,121.181414 C495.303187,123.036789 496.474841,124.892163 497.646495,126.749142 C498.403048,127.944863 499.157928,129.142189 499.912808,130.339515 C500.294433,130.942993 501.00412,131.745491 501.082788,132.477368 C501.345574,134.921776 496.076478,134.034213 494.74414,134.018163 C492.387442,133.992483 490.030744,133.965199 487.675719,133.939519 C485.700645,133.917049 485.702319,136.852584 487.675719,136.873449 C490.424085,136.903944 493.17245,136.936044 495.922489,136.966539 C499.146212,137.003454 502.497142,137.419148 503.938276,133.899394" id="Fill-9" fill="#46A0F8"></path>
                <path d="M475.016281,117.321392 C476.149892,115.556891 477.283504,113.793968 478.417115,112.029467 C479.147953,110.891537 479.878791,109.755186 480.609629,108.617257 C481.040012,107.948072 481.442785,106.971125 482.363641,106.887477 C483.312106,106.800673 483.779842,107.746054 484.242707,108.389986 C484.996282,109.434798 485.748233,110.47961 486.500184,111.526 C487.783211,113.30944 489.067862,115.092881 490.350889,116.877899 C491.44065,118.389878 494.016448,116.950499 492.915319,115.42116 C491.46826,113.410449 490.0212,111.398161 488.572516,109.38745 C486.982538,107.177878 485.509493,104.067116 482.363641,104.000829 C479.376949,103.939277 477.944506,107.318344 476.616005,109.384294 C475.229036,111.544939 473.840444,113.705585 472.451851,115.864653 C471.435174,117.447653 474.004476,118.894923 475.016281,117.321392" id="Fill-11" fill="#46A0F8"></path>
                <path d="M470.436274,136.959791 C473.196469,136.929308 475.958344,136.898825 478.718538,136.866737 C480.698751,136.84588 480.702113,133.911446 478.718538,133.933908 C476.351697,133.961183 473.984856,133.986853 471.618014,134.012523 C470.271537,134.028567 468.92506,134.043007 467.576901,134.057446 C466.415334,134.071886 465.282343,133.890589 465.253766,132.472307 C465.240318,131.862638 466.010214,130.993057 466.316155,130.510135 C467.112947,129.255501 467.908058,128.000866 468.703168,126.746231 C469.879865,124.891554 471.056562,123.035272 472.233258,121.180595 C473.262028,119.55695 470.604374,118.084119 469.578967,119.699741 C468.193827,121.883319 466.808687,124.068501 465.423546,126.252079 C463.9947,128.50625 461.611049,131.094134 462.385988,133.893798 C463.377775,137.481219 467.486128,136.993484 470.436274,136.959791" id="Fill-13" fill="#46A0F8"></path>
                <path d="M428.290909,17 C418.365605,17 410.320661,25.0595308 410.320661,34.9991833 C410.320661,44.9404692 418.365605,53 428.290909,53 C438.216213,53 446.261157,44.9404692 446.261157,34.9991833 C446.261157,25.0595308 438.216213,17 428.290909,17" id="Fill-15" fill="#FFE700"></path>
                <path d="M461.236364,318.040346 C461.236364,321.884283 464.309084,325 468.099974,325 L478.421625,325 C482.163326,325 485.196694,321.924185 485.196694,318.128464 L485.196694,295 L461.236364,295 L461.236364,318.040346 Z" id="Fill-17" fill="#46A0F8"></path>
                <polygon id="Fill-19" fill="#46A0F8" points="393.445599 133 376.37686 159.666852 386.95135 159.666852 378.602298 181 397.342149 155.095821 386.395397 155.095821"></polygon>
                <path d="M513.150413,287 C502.674261,287 494.181818,295.506504 494.181818,306 C494.181818,316.493496 502.674261,325 513.150413,325 C523.626565,325 532.119008,316.493496 532.119008,306 C532.119008,295.506504 523.626565,287 513.150413,287" id="Fill-21" fill="#46A0F8"></path>
                <g id="Group-25" transform="translate(566.062810, 287.000000)">
                    <mask id="mask-2" fill="white">
                        <use xlink:href="#path-1"></use>
                    </mask>
                    <g id="Clip-24"></g>
                    <path d="M18.9690885,0 C8.49266424,0 0,8.50650364 0,19 C0,29.4934964 8.49266424,38 18.9690885,38 C29.4455128,38 37.938177,29.4934964 37.938177,19 C37.938177,8.50650364 29.4455128,0 18.9690885,0" id="Fill-23" fill="#46A0F8" mask="url(#mask-2)"></path>
                </g>
                <path d="M254.185803,267 C230.331713,267 211.669511,278.982502 200.667769,297 L306.492562,297 C298.274948,278.906792 279.058878,267 254.185803,267" id="Fill-26" fill="#46A0F8"></path>
                <polygon id="Fill-28" fill="#46A0F8" points="321.927111 59 291.056369 59 288.522314 83 324.46281 83"></polygon>
                <path d="M172.220538,325 L148.360809,325 C143.054197,325 142.338305,321.58743 142.338305,318.248938 L142.338305,280.141079 C142.338305,277.943404 141.135139,277.943404 140.682909,277.943404 L133.273677,277.943404 C132.449317,277.943404 131.781818,277.284924 131.781818,276.471702 C131.781818,275.65848 132.449317,275 133.273677,275 L140.682909,275 C143.501421,275 145.322023,277.01824 145.322023,280.141079 L145.322023,318.248938 C145.322023,321.712541 146.201452,322.056596 148.360809,322.056596 L172.220538,322.056596 C173.044898,322.056596 173.712397,322.715076 173.712397,323.528298 C173.712397,324.34152 173.044898,325 172.220538,325" id="Fill-30" fill="#000000"></path>
                <path d="M337.164409,341.099783 L356.29788,341.099783 C355.852344,337.965992 354.391249,330.455922 349.953909,322.19809 C342.189791,307.744045 329.477278,297.958246 312.170177,293.113197 C311.745935,292.993166 311.398679,292.693087 311.223413,292.292442 C311.157893,292.143214 307.300404,283.538264 297.909754,275.061455 C289.234909,267.231843 273.903235,257.900217 250.121122,257.900217 C223.266122,257.900217 205.60685,270.660847 195.521688,281.366345 C182.981165,294.680093 174.606074,312.861598 172.542195,331.250724 C172.460295,331.979023 171.844407,332.53214 171.105669,332.541872 C170.552026,332.551605 165.659321,332.767337 165.659321,336.888954 C165.659321,337.905976 165.973817,338.708888 166.620827,339.346352 C168.068819,340.768886 170.909109,341.055988 171.865701,341.054366 L186.912363,341.054366 C187.336605,338.793235 188.529069,333.891414 191.50859,328.944176 C195.22521,322.773916 202.501204,315.419563 216.060563,315.419563 C229.888553,315.419563 237.248085,322.78527 240.987637,328.963641 C243.986814,333.918989 245.162898,338.830542 245.577312,341.099783 L278.560067,341.099783 C278.956463,338.812699 280.093235,333.860595 283.023616,328.861452 C286.681268,322.6182 293.903207,315.177878 307.539552,315.177878 C321.482203,315.177878 328.864666,322.611712 332.600943,328.848475 C335.60012,333.852485 336.759823,338.811077 337.164409,341.099783 M357.939156,344 L335.901512,344 C335.151308,344 334.522316,343.438772 334.443692,342.69912 C334.43714,342.637482 333.736077,336.379631 330.030922,330.245056 C325.157874,322.172137 317.590317,318.078095 307.539552,318.078095 C297.745954,318.078095 290.366767,322.167271 285.605103,330.233702 C281.981848,336.373143 281.288974,342.63586 281.282422,342.69912 C281.205436,343.43715 280.574806,344 279.824603,344 L244.320966,344 C243.5724,344 242.945047,343.442016 242.864785,342.70723 C242.858233,342.647214 242.129323,336.447757 238.424168,330.369954 C233.549482,322.374893 226.024513,318.31978 216.060563,318.31978 C206.27843,318.31978 198.863207,322.394357 194.024557,330.42997 C190.366904,336.501285 189.623252,342.609907 189.6167,342.669923 C189.531524,343.403087 188.905809,343.954583 188.162157,343.954583 L171.878805,343.954583 C171.713367,343.957827 167.190851,343.982158 164.568414,341.41446 C163.348104,340.222257 162.730579,338.699156 162.730579,336.888954 C162.730579,333.972516 164.26866,331.711385 167.061449,330.51756 C168.044249,330.09745 169.02541,329.878474 169.769062,329.764931 C172.117953,311.168182 180.683052,292.866646 193.380823,279.389072 C208.411105,263.433013 228.031062,255 250.121122,255 C274.910605,255 290.922049,264.795531 299.988375,273.012812 C308.447004,280.681842 312.530537,288.282746 313.614892,290.50657 C335.798318,296.918515 347.05465,310.572892 352.602554,320.950737 C358.671341,332.303432 359.374043,342.047058 359.401889,342.455813 C359.428097,342.856458 359.285591,343.248993 359.008769,343.540961 C358.731947,343.834551 358.345379,344 357.939156,344" id="Fill-32" fill="#000000"></path>
                <path d="M216.142149,325.896224 C205.351397,325.896224 196.572289,334.690184 196.572289,345.49919 C196.572289,356.309816 205.351397,365.103776 216.142149,365.103776 C226.9329,365.103776 235.712009,356.309816 235.712009,345.49919 C235.712009,334.690184 226.9329,325.896224 216.142149,325.896224 M216.142149,368 C203.75696,368 193.679339,357.906951 193.679339,345.49919 C193.679339,333.093049 203.75696,323 216.142149,323 C228.527338,323 238.604959,333.093049 238.604959,345.49919 C238.604959,357.906951 228.527338,368 216.142149,368" id="Fill-34" fill="#000000"></path>
                <path d="M307.990083,325.896224 C297.199331,325.896224 288.418606,334.690184 288.418606,345.49919 C288.418606,356.309816 297.199331,365.103776 307.990083,365.103776 C318.780834,365.103776 327.559943,356.309816 327.559943,345.49919 C327.559943,334.690184 318.780834,325.896224 307.990083,325.896224 M307.990083,368 C295.603277,368 285.527273,357.906951 285.527273,345.49919 C285.527273,333.093049 295.603277,323 307.990083,323 C320.375272,323 330.452893,333.093049 330.452893,345.49919 C330.452893,357.906951 320.375272,368 307.990083,368" id="Fill-36" fill="#000000"></path>
                <path d="M199.823714,291.083792 L299.689929,291.083792 C290.999252,274.653211 272.685938,264.917839 250.186956,264.917839 C238.992047,264.917839 228.701399,267.5421 219.601767,272.718858 C211.728997,277.194292 205.086348,283.365953 199.823714,291.083792 M302.041007,294 L197.132113,294 C196.602591,294 196.115431,293.712946 195.858002,293.249745 C195.602202,292.784913 195.616866,292.21896 195.897105,291.768807 C201.628977,282.587971 209.120491,275.325178 218.161467,270.182671 C227.705897,264.753109 238.482077,262 250.186956,262 C262.359445,262 273.717284,264.821611 283.028724,270.156575 C292.14139,275.37737 299.171812,282.906014 303.362368,291.927013 C303.570918,292.378797 303.536703,292.905607 303.269498,293.326402 C303.000664,293.745566 302.537943,294 302.041007,294" id="Fill-38" fill="#000000"></path>
                <path d="M123.725344,271.112124 L123.725344,281.887876 C126.10423,281.244888 127.858128,279.072766 127.858128,276.500816 C127.858128,273.927234 126.10423,271.755112 123.725344,271.112124 M122.262672,285 C121.454439,285 120.8,284.347221 120.8,283.541039 C120.8,283.505136 120.801636,283.469233 120.803272,283.434962 C120.801636,283.399059 120.8,283.363156 120.8,283.327254 L120.8,269.458961 C120.8,268.654411 121.454439,268 122.262672,268 C126.961546,268 130.783471,271.813862 130.783471,276.500816 C130.783471,281.18777 126.961546,285 122.262672,285" id="Fill-40" fill="#000000"></path>
                <path d="M119.264949,274 L115.346621,274 C114.498394,274 113.81157,273.552573 113.81157,273 C113.81157,272.447427 114.498394,272 115.346621,272 L119.264949,272 C120.113176,272 120.8,272.447427 120.8,273 C120.8,273.552573 120.113176,274 119.264949,274" id="Fill-42" fill="#000000"></path>
                <path d="M119.264949,282 L115.346621,282 C114.498394,282 113.81157,281.552573 113.81157,281 C113.81157,280.447427 114.498394,280 115.346621,280 L119.264949,280 C120.113176,280 120.8,280.447427 120.8,281 C120.8,281.552573 120.113176,282 119.264949,282" id="Fill-44" fill="#000000"></path>
                <path d="M461.179936,295.885034 L461.179936,316.803146 C461.179936,319.731747 463.607415,322.114966 466.590404,322.114966 L476.936363,322.114966 C479.870046,322.114966 482.25808,319.770472 482.25808,316.890278 L482.25808,295.885034 L461.179936,295.885034 Z M476.936363,325 L466.590404,325 C461.986904,325 458.241322,321.322711 458.241322,316.803146 L458.241322,294.442517 C458.241322,293.645422 458.89873,293 459.710629,293 L483.727387,293 C484.539286,293 485.196694,293.645422 485.196694,294.442517 L485.196694,316.890278 C485.196694,321.361436 481.490557,325 476.936363,325 L476.936363,325 Z" id="Fill-46" fill="#000000"></path>
                <path d="M465.229752,299.662376 C465.024678,299.662376 464.857756,299.833168 464.857756,300.042999 L464.857756,318.957001 C464.857756,319.166832 465.024678,319.337624 465.229752,319.337624 C465.434827,319.337624 465.601748,319.166832 465.601748,318.957001 L465.601748,300.042999 C465.601748,299.833168 465.434827,299.662376 465.229752,299.662376 M465.229752,321 C464.128073,321 463.233058,320.082603 463.233058,318.957001 L463.233058,300.042999 C463.233058,298.917397 464.128073,298 465.229752,298 C466.331431,298 467.226446,298.917397 467.226446,300.042999 L467.226446,318.957001 C467.226446,320.082603 466.331431,321 465.229752,321" id="Fill-48" fill="#000000"></path>
                <path d="M471.219835,299.662376 C471.01476,299.662376 470.847839,299.833168 470.847839,300.042999 L470.847839,318.957001 C470.847839,319.166832 471.01476,319.337624 471.219835,319.337624 C471.424909,319.337624 471.59342,319.166832 471.59342,318.957001 L471.59342,300.042999 C471.59342,299.833168 471.424909,299.662376 471.219835,299.662376 M471.219835,321 C470.118155,321 469.22314,320.082603 469.22314,318.957001 L469.22314,300.042999 C469.22314,298.917397 470.118155,298 471.219835,298 C472.321514,298 473.216529,298.917397 473.216529,300.042999 L473.216529,318.957001 C473.216529,320.082603 472.321514,321 471.219835,321" id="Fill-50" fill="#000000"></path>
                <path d="M477.209917,299.662376 C477.004843,299.662376 476.837922,299.833168 476.837922,300.042999 L476.837922,318.957001 C476.837922,319.166832 477.004843,319.337624 477.209917,319.337624 C477.414992,319.337624 477.581913,319.166832 477.581913,318.957001 L477.581913,300.042999 C477.581913,299.833168 477.414992,299.662376 477.209917,299.662376 M477.209917,321 C476.108238,321 475.213223,320.082603 475.213223,318.957001 L475.213223,300.042999 C475.213223,298.917397 476.108238,298 477.209917,298 C478.311597,298 479.206612,298.917397 479.206612,300.042999 L479.206612,318.957001 C479.206612,320.082603 478.311597,321 477.209917,321" id="Fill-52" fill="#000000"></path>
                <path d="M459.874211,290.80502 C459.477251,290.80502 459.153501,291.117212 459.153501,291.5 C459.153501,291.882788 459.477251,292.193411 459.874211,292.193411 L481.568738,292.193411 C481.965698,292.193411 482.287822,291.882788 482.287822,291.5 C482.287822,291.117212 481.965698,290.80502 481.568738,290.80502 L459.874211,290.80502 Z M481.568738,295 L459.874211,295 C457.873141,295 456.244628,293.429628 456.244628,291.5 C456.244628,289.570372 457.873141,288 459.874211,288 L481.568738,288 C483.569808,288 485.196694,289.570372 485.196694,291.5 C485.196694,293.429628 483.569808,295 481.568738,295 L481.568738,295 Z" id="Fill-54" fill="#000000"></path>
                <path d="M476.127656,291 C475.529787,291 475.045395,290.484685 475.045395,289.848649 L475.045395,288.088288 C475.045395,287.609009 474.791343,287.300901 474.6152,287.300901 L468.756763,287.300901 C468.611106,287.300901 468.390928,287.581982 468.390928,288.005405 L468.390928,289.848649 C468.390928,290.484685 467.908229,291 467.31036,291 C466.712492,291 466.228099,290.484685 466.228099,289.848649 L466.228099,288.005405 C466.228099,286.347748 467.362864,285 468.756763,285 L474.6152,285 C476.04636,285 477.209917,286.385586 477.209917,288.088288 L477.209917,289.848649 C477.209917,290.484685 476.725525,291 476.127656,291" id="Fill-56" fill="#000000"></path>
                <mask id="mask-4" fill="white">
                    <use xlink:href="#path-3"></use>
                </mask>
                <g id="Clip-59"></g>
                <path d="M363.345716,267.320847 L449.310474,267.320847 L449.310474,264.680652 L363.345716,264.680652 L363.345716,267.320847 Z M450.779212,270 L361.875333,270 C361.06284,270 360.403306,269.399138 360.403306,268.660423 L360.403306,263.339577 C360.403306,262.599363 361.06284,262 361.875333,262 L450.779212,262 C451.591706,262 452.25124,262.599363 452.25124,263.339577 L452.25124,268.660423 C452.25124,269.399138 451.591706,270 450.779212,270 L450.779212,270 Z" id="Fill-58" fill="#000000" mask="url(#mask-4)"></path>
                <path d="M363.345716,277.320847 L449.310474,277.320847 L449.310474,274.680652 L363.345716,274.680652 L363.345716,277.320847 Z M450.779212,280 L361.875333,280 C361.06284,280 360.403306,279.400637 360.403306,278.660423 L360.403306,273.339577 C360.403306,272.600862 361.06284,272 361.875333,272 L450.779212,272 C451.591706,272 452.25124,272.600862 452.25124,273.339577 L452.25124,278.660423 C452.25124,279.400637 451.591706,280 450.779212,280 L450.779212,280 Z" id="Fill-60" fill="#000000" mask="url(#mask-4)"></path>
                <path d="M363.345716,286.319348 L449.310474,286.319348 L449.310474,283.679153 L363.345716,283.679153 L363.345716,286.319348 Z M450.779212,289 L361.875333,289 C361.06284,289 360.403306,288.399138 360.403306,287.660423 L360.403306,282.339577 C360.403306,281.599363 361.06284,281 361.875333,281 L450.779212,281 C451.591706,281 452.25124,281.599363 452.25124,282.339577 L452.25124,287.660423 C452.25124,288.399138 451.591706,289 450.779212,289 L450.779212,289 Z" id="Fill-61" fill="#000000" mask="url(#mask-4)"></path>
                <path d="M361.30613,303.121545 L451.350036,303.121545 L451.350036,296.880064 L361.30613,296.880064 L361.30613,303.121545 Z M452.797364,306 L359.857181,306 C359.056532,306 358.406612,305.35605 358.406612,304.560773 L358.406612,295.440837 C358.406612,294.645559 359.056532,294 359.857181,294 L452.797364,294 C453.598014,294 454.247934,294.645559 454.247934,295.440837 L454.247934,304.560773 C454.247934,305.35605 453.598014,306 452.797364,306 L452.797364,306 Z" id="Fill-62" fill="#000000" mask="url(#mask-4)"></path>
                <path d="M379.081473,320.100981 L381.657511,320.100981 L381.657511,306.895778 L379.081473,306.895778 L379.081473,320.100981 Z M383.01133,323 L377.729166,323 C376.981918,323 376.37686,322.350192 376.37686,321.551301 L376.37686,305.448699 C376.37686,304.648188 376.981918,304 377.729166,304 L383.01133,304 C383.757065,304 384.363636,304.648188 384.363636,305.448699 L384.363636,321.551301 C384.363636,322.350192 383.757065,323 383.01133,323 L383.01133,323 Z" id="Fill-63" fill="#000000" mask="url(#mask-4)"></path>
                <path d="M430.995522,320.100981 L433.57156,320.100981 L433.57156,306.895778 L430.995522,306.895778 L430.995522,320.100981 Z M434.925379,323 L429.643216,323 C428.897481,323 428.290909,322.350192 428.290909,321.551301 L428.290909,305.448699 C428.290909,304.648188 428.897481,304 429.643216,304 L434.925379,304 C435.672627,304 436.277686,304.648188 436.277686,305.448699 L436.277686,321.551301 C436.277686,322.350192 435.672627,323 434.925379,323 L434.925379,323 Z" id="Fill-64" fill="#000000" mask="url(#mask-4)"></path>
                <path d="M383.054595,272.130488 L385.674328,272.130488 L385.674328,269.867683 L383.054595,269.867683 L383.054595,272.130488 Z M386.515678,274 L382.211595,274 C381.746378,274 381.368595,273.582927 381.368595,273.065244 L381.368595,268.934756 C381.368595,268.418902 381.746378,268 382.211595,268 L386.515678,268 C386.982545,268 387.358678,268.418902 387.358678,268.934756 L387.358678,273.065244 C387.358678,273.582927 386.982545,274 386.515678,274 L386.515678,274 Z" id="Fill-65" fill="#000000" mask="url(#mask-4)"></path>
                <path d="M425.981871,272.130488 L428.601604,272.130488 L428.601604,269.867683 L425.981871,269.867683 L425.981871,272.130488 Z M429.444604,274 L425.14052,274 C424.673654,274 424.297521,273.582927 424.297521,273.065244 L424.297521,268.934756 C424.297521,268.418902 424.673654,268 425.14052,268 L429.444604,268 C429.909821,268 430.287603,268.418902 430.287603,268.934756 L430.287603,273.065244 C430.287603,273.582927 429.909821,274 429.444604,274 L429.444604,274 Z" id="Fill-66" fill="#000000" mask="url(#mask-4)"></path>
                <path d="M383.054595,282.255973 L385.674328,282.255973 L385.674328,280.744027 L383.054595,280.744027 L383.054595,282.255973 Z M386.515678,284 L382.211595,284 C381.746378,284 381.368595,283.609215 381.368595,283.127986 L381.368595,279.872014 C381.368595,279.390785 381.746378,279 382.211595,279 L386.515678,279 C386.982545,279 387.358678,279.390785 387.358678,279.872014 L387.358678,283.127986 C387.358678,283.609215 386.982545,284 386.515678,284 L386.515678,284 Z" id="Fill-67" fill="#000000" mask="url(#mask-4)"></path>
                <path d="M425.981871,282.255973 L428.601604,282.255973 L428.601604,280.744027 L425.981871,280.744027 L425.981871,282.255973 Z M429.444604,284 L425.14052,284 C424.673654,284 424.297521,283.609215 424.297521,283.127986 L424.297521,279.872014 C424.297521,279.390785 424.673654,279 425.14052,279 L429.444604,279 C429.909821,279 430.287603,279.390785 430.287603,279.872014 L430.287603,283.127986 C430.287603,283.609215 429.909821,284 429.444604,284 L429.444604,284 Z" id="Fill-68" fill="#000000" mask="url(#mask-4)"></path>
                <path d="M383.054595,295.243684 L385.674328,295.243684 L385.674328,288.756316 L383.054595,288.756316 L383.054595,295.243684 Z M386.515678,297 L382.211595,297 C381.746378,297 381.368595,296.606462 381.368595,296.121842 L381.368595,287.878158 C381.368595,287.39182 381.746378,287 382.211595,287 L386.515678,287 C386.982545,287 387.358678,287.39182 387.358678,287.878158 L387.358678,296.121842 C387.358678,296.606462 386.982545,297 386.515678,297 L386.515678,297 Z" id="Fill-69" fill="#000000" mask="url(#mask-4)"></path>
                <path d="M425.981871,295.243684 L428.601604,295.243684 L428.601604,288.756316 L425.981871,288.756316 L425.981871,295.243684 Z M429.444604,297 L425.14052,297 C424.673654,297 424.297521,296.606462 424.297521,296.121842 L424.297521,287.878158 C424.297521,287.39182 424.673654,287 425.14052,287 L429.444604,287 C429.909821,287 430.287603,287.39182 430.287603,287.878158 L430.287603,296.121842 C430.287603,296.606462 429.909821,297 429.444604,297 L429.444604,297 Z" id="Fill-70" fill="#000000" mask="url(#mask-4)"></path>
                <path d="M19.9669421,323 C19.4152828,323 18.968595,322.342765 18.968595,321.531079 L18.968595,206.470564 C18.968595,205.658878 19.4152828,205 19.9669421,205 C20.5186015,205 20.9652893,205.658878 20.9652893,206.470564 L20.9652893,321.531079 C20.9652893,322.342765 20.5186015,323 19.9669421,323" id="Fill-71" fill="#000000" mask="url(#mask-4)"></path>
                <path d="M19.4961393,230 C19.1363281,230 18.7748739,229.872361 18.4922824,229.613891 L8.45042685,220.466949 C7.8589563,219.927673 7.82938277,219.024626 8.3847079,218.45025 C8.94003302,217.875874 9.86995616,217.847155 10.4614267,218.38643 L20.5016393,227.533373 C21.0931098,228.072648 21.1226833,228.9741 20.5673582,229.550072 C20.2781948,229.848428 19.8871671,230 19.4961393,230" id="Fill-72" fill="#000000" mask="url(#mask-4)"></path>
                <path d="M20.4400354,247 C20.135382,247 19.8274351,246.905277 19.5655979,246.707521 C18.9118283,246.218947 18.7734992,245.28833 19.257651,244.630251 L30.2893959,229.602455 C30.7735477,228.942715 31.6957416,228.803122 32.3495112,229.291696 C33.0032809,229.78027 33.1399632,230.710886 32.6558114,231.370627 L21.6240665,246.398423 C21.3358809,246.792273 20.8912517,247 20.4400354,247" id="Fill-73" fill="#000000" mask="url(#mask-4)"></path>
                <path d="M20.9652893,172.954154 C20.5583634,173.044269 19.779534,173.435862 18.6438106,174.935059 C9.18445215,187.431636 -0.441679188,241.628803 4.13957216,256.612572 C6.00242537,262.709303 9.44295013,267.500176 14.3627505,270.855754 C17.3780043,272.912028 20.0630479,273.770584 20.9652893,274.021269 C21.8675306,273.770584 24.5525742,272.912028 27.5678281,270.855754 C32.4876284,267.500176 35.9281531,262.709303 37.7910064,256.612572 C42.3722577,241.627165 32.7477941,187.429998 23.2867679,174.935059 C22.1510445,173.435862 21.3722151,173.044269 20.9652893,172.954154 M20.9652893,277 C20.8585546,277 20.75182,276.988531 20.646753,276.967231 C20.0613802,276.841069 6.24924925,273.70013 1.28275252,257.454743 C-3.5736741,241.566542 6.21923013,186.438726 16.2506196,173.186816 C17.5414418,171.482811 18.8222576,170.473517 20.1414312,170.131077 C20.3298845,170.047516 20.5400184,170 20.7601586,170 L21.1704199,170 C21.3905601,170 21.600694,170.047516 21.7891473,170.131077 C23.1083209,170.473517 24.3891367,171.482811 25.6799589,173.186816 C35.7113484,186.437088 45.5042526,241.566542 40.647826,257.454743 C35.6813293,273.70013 21.8691983,276.841069 21.2838255,276.967231 C21.1787586,276.988531 21.0720239,277 20.9652893,277" id="Fill-74" fill="#000000" mask="url(#mask-4)"></path>
                <path d="M157.280402,331 L2.45513501,331 C1.65015377,331 0.998347107,331.447427 0.998347107,332 C0.998347107,332.552573 1.65015377,333 2.45513501,333 L157.280402,333 C158.085383,333 158.73719,332.552573 158.73719,332 C158.73719,331.447427 158.085383,331 157.280402,331" id="Fill-75" fill="#000000" mask="url(#mask-4)"></path>
                <path d="M514.678187,331 L375.847433,331 C375.036661,331 374.380165,331.447427 374.380165,332 C374.380165,332.552573 375.036661,333 375.847433,333 L514.678187,333 C515.488959,333 516.145455,332.552573 516.145455,332 C516.145455,331.447427 515.488959,331 514.678187,331" id="Fill-76" fill="#000000" mask="url(#mask-4)"></path>
                <path d="M601.53688,331 L527.593699,331 C526.784305,331 526.128926,331.447427 526.128926,332 C526.128926,332.552573 526.784305,333 527.593699,333 L601.53688,333 C602.346273,333 603.001653,332.552573 603.001653,332 C603.001653,331.447427 602.346273,331 601.53688,331" id="Fill-77" fill="#000000" mask="url(#mask-4)"></path>
                <path d="M157.420532,315.989639 C157.625628,316.038641 158.013365,316.079476 158.736442,316.079476 C159.124178,316.079476 159.721502,316.079476 160.052351,316.01904 L160.053848,124.314735 C160.053848,122.241947 159.188552,120.920524 158.736442,120.920524 C158.285829,120.920524 157.420532,122.241947 157.420532,124.314735 L157.420532,315.989639 Z M158.736442,319 C157.64509,319 154.743802,319 154.743802,316.210148 L154.743802,124.314735 C154.743802,120.773518 156.498348,118 158.736442,118 C160.976033,118 162.730579,120.773518 162.730579,124.314735 L162.730579,316.210148 C162.730579,319 160.133192,319 158.736442,319 L158.736442,319 Z" id="Fill-78" fill="#000000" mask="url(#mask-4)"></path>
                <path d="M143.471967,95.6354293 C146.542268,100.238048 148.713592,101.616205 149.995555,101.961155 C151.112465,102.261754 151.787098,101.828103 152.240592,101.51272 C152.423272,101.328747 154.559343,98.9255951 149.609364,91.468105 L119.472021,51.5820314 C119.454394,51.5590347 119.436767,51.5343954 119.420743,51.5097562 C119.181977,51.1516652 118.858282,50.9890459 118.672397,50.9479805 C118.645155,51.135239 118.677204,51.49333 118.920777,51.859634 C118.941609,51.8908438 118.960839,51.9220535 118.978466,51.9549059 L143.471967,95.6354293 Z M150.719864,105 C150.274382,105 149.790441,104.942508 149.269644,104.802886 C146.673669,104.104773 143.992764,101.632631 141.073094,97.2435533 C141.052262,97.2123435 141.033033,97.1811337 141.015406,97.1482814 L116.5187,53.4628301 C115.398585,51.7265819 115.627735,49.4515546 117.031485,48.4692685 L117.033087,48.4692685 C118.440041,47.4853397 120.595341,48.1029644 121.761927,49.8145734 L151.902475,89.7039322 C151.920102,89.7285715 151.937729,89.7515682 151.953753,89.7762075 C158.751361,99.9982253 154.431146,103.526571 153.916759,103.89616 C153.431215,104.236182 152.33674,105 150.719864,105 L150.719864,105 Z" id="Fill-79" fill="#000000" mask="url(#mask-4)"></path>
                <path d="M169.688077,108.74231 C169.763828,108.987223 170.878697,111.943679 179.858579,110.959254 L229.667034,102.462026 C229.69503,102.457255 229.724672,102.452484 229.754314,102.449304 C230.18577,102.401593 230.485483,102.190077 230.610638,102.046946 C230.459135,101.937212 230.123192,101.803622 229.683502,101.852923 C229.647273,101.857694 229.609397,101.859284 229.571521,101.860875 L179.097768,103.689775 C173.544831,104.311601 171.283805,105.596602 170.364903,106.568304 C169.562922,107.414369 169.625499,108.203182 169.688077,108.74231 M176.515619,114 C167.690535,114.001589 166.842444,109.690157 166.771632,109.141487 C166.231489,104.58355 170.28421,101.803622 178.817815,100.857365 C178.855691,100.854185 178.89192,100.851004 178.929796,100.849414 L229.410137,99.0221041 C231.478491,98.8185396 233.39534,100.044698 233.596247,101.722515 L233.596247,101.722515 C233.795508,103.401922 232.216247,105.017715 230.13966,105.26899 L180.326264,113.767808 C180.298269,113.772579 180.268627,113.77735 180.238985,113.780531 C178.862278,113.931614 177.625548,114 176.515619,114" id="Fill-80" fill="#000000" mask="url(#mask-4)"></path>
                <path d="M142.524605,124.060131 L120.969886,169.992245 C120.958366,170.018699 120.945201,170.045153 120.93039,170.071606 C120.721393,170.453534 120.727976,170.827194 120.777345,171.015677 C120.956721,170.95781 121.261166,170.762713 121.4751,170.372519 C121.493203,170.339451 121.51295,170.306384 121.532698,170.27497 L149.107204,127.798388 C151.784676,122.873016 152.001902,120.247473 151.712267,118.911555 C151.458837,117.747586 150.757791,117.324325 150.265741,117.053173 C150.015603,116.967199 146.877349,116.100836 142.524605,124.060131 M120.680252,174 C120.211242,174 119.75046,173.889225 119.329173,173.657754 C117.795428,172.812884 117.341229,170.549429 118.325327,168.696007 L139.881692,122.758934 C139.894857,122.730826 139.908022,122.704373 139.922833,122.677919 C145.876794,111.757448 151.040842,114.116798 151.611883,114.422671 C155.773731,116.71258 155.78525,121.705741 151.661252,129.268229 C151.64315,129.301296 151.623402,129.334363 151.603654,129.365777 L124.025857,171.84732 C123.265567,173.199772 121.944111,174 120.680252,174" id="Fill-81" fill="#000000" mask="url(#mask-4)"></path>
                <path d="M158.238017,106.954245 C156.286621,106.954245 154.698122,108.545374 154.698122,110.5 C154.698122,112.454626 156.286621,114.045755 158.238017,114.045755 C160.189412,114.045755 161.777911,112.454626 161.777911,110.5 C161.777911,108.545374 160.189412,106.954245 158.238017,106.954245 M158.238017,117 C154.660183,117 151.74876,114.083757 151.74876,110.5 C151.74876,106.916243 154.660183,104 158.238017,104 C161.81585,104 164.727273,106.916243 164.727273,110.5 C164.727273,114.083757 161.81585,117 158.238017,117" id="Fill-82" fill="#000000" mask="url(#mask-4)"></path>
                <path d="M213.997174,261 C213.251621,261 212.647934,260.34758 212.647934,259.541842 L212.647934,178.165533 C212.647934,175.317721 214.439375,173 216.641322,173 C218.84327,173 220.634711,175.317721 220.634711,178.165533 L220.634711,256.811466 C220.634711,257.617204 220.031024,258.269624 219.285471,258.269624 C218.539917,258.269624 217.936231,257.617204 217.936231,256.811466 L217.936231,178.165533 C217.936231,176.878635 217.252555,175.916316 216.641322,175.916316 C216.030089,175.916316 215.346414,176.878635 215.346414,178.165533 L215.346414,259.541842 C215.346414,260.34758 214.742727,261 213.997174,261" id="Fill-83" fill="#000000" mask="url(#mask-4)"></path>
                <path d="M210.373935,152.947334 C211.453052,157.010718 212.677818,158.342623 213.315027,158.773388 C213.881068,159.159591 214.30808,159.08037 214.683786,158.984644 C215.261412,158.695817 216.385217,156.896838 215.04956,151.795327 L204.086252,118.542259 L210.373935,152.947334 Z M214.159122,162 C211.193203,162.001649 208.960489,159.197551 207.49739,153.64382 C207.48746,153.60751 207.479184,153.56955 207.472564,153.533241 L200.776075,116.883567 C200.59236,116.140869 200.643668,115.361861 200.920068,114.686831 C201.256051,113.864912 201.891605,113.279006 202.666186,113.076002 C203.429182,112.876298 204.268312,113.074351 204.96676,113.620647 C205.552661,114.077819 205.986294,114.736345 206.19318,115.477392 L217.876452,150.917293 C217.884727,150.945351 217.893003,150.975058 217.901278,151.003116 C220.327638,160.214222 216.026063,161.678163 215.527881,161.815149 C215.054525,161.938932 214.599376,162 214.159122,162 L214.159122,162 Z" id="Fill-84" fill="#000000" mask="url(#mask-4)"></path>
                <path d="M231.719239,172.010368 L266.024061,177.699865 L232.8641,167.440328 C228.791479,166.519849 227.056145,166.972809 226.382022,167.325471 C225.781708,167.640925 225.653773,168.045353 225.565083,168.412574 C225.55208,169.0451 226.616571,170.837526 231.719239,172.010368 M268.525368,181 C268.266216,181 268.005424,180.972499 267.749553,180.919114 L231.187814,174.855925 C231.15993,174.851072 231.130407,174.844601 231.100883,174.838131 C221.881308,172.736721 222.576754,168.34463 222.686648,167.851227 C222.824425,167.259144 223.183629,165.72717 225.004253,164.771102 C226.875723,163.790767 229.680468,163.745471 233.577588,164.633596 C233.615312,164.641684 233.651397,164.653008 233.687481,164.662715 L269.010868,175.590367 C270.721599,176.009355 271.828735,177.510593 271.489213,178.963299 C271.312071,179.715536 270.751122,180.351297 269.947423,180.705576 C269.506209,180.901319 269.019069,181 268.525368,181" id="Fill-85" fill="#000000" mask="url(#mask-4)"></path>
                <path d="M204.825148,175.744242 L183.326915,203.204192 L208.466194,178.888288 C211.242157,175.74587 211.652109,174.007857 211.648783,173.251138 C211.645416,172.577414 211.33586,172.274726 211.041364,172.024114 C210.467431,171.718172 208.320619,171.814185 204.825148,175.744242 M181.262094,208 C180.642982,208 180.04897,207.807972 179.57376,207.410898 C178.969708,206.904792 178.655132,206.113898 178.71035,205.241637 C178.758875,204.512583 179.060064,203.793293 179.560374,203.212328 L202.472524,173.946017 C202.49093,173.921607 202.509336,173.900452 202.529415,173.877669 C208.832641,166.76451 212.522212,169.431741 212.922125,169.758839 C215.813543,172.183595 215.06057,175.90535 210.694996,180.831347 C210.669897,180.859012 210.643125,180.886677 210.616352,180.912714 L183.838937,206.81366 C183.127795,207.589907 182.169009,208 181.262094,208" id="Fill-86" fill="#000000" mask="url(#mask-4)"></path>
                <path d="M217.140496,164.140348 C215.841401,164.140348 214.785997,165.199425 214.785997,166.499122 C214.785997,167.800575 215.841401,168.859652 217.140496,168.859652 C218.43959,168.859652 219.496748,167.800575 219.496748,166.499122 C219.496748,165.199425 218.43959,164.140348 217.140496,164.140348 M217.140496,172 C214.112782,172 211.649587,169.532333 211.649587,166.499122 C211.649587,163.467667 214.112782,161 217.140496,161 C220.16821,161 222.631405,163.467667 222.631405,166.499122 C222.631405,169.532333 220.16821,172 217.140496,172" id="Fill-87" fill="#000000" mask="url(#mask-4)"></path>
                <path d="M477.444288,133.296679 L462.514367,133.296679 C460.623297,133.296679 460.585158,131.115214 461.421043,129.874442 C462.174292,128.756737 462.927542,127.639031 463.680792,126.521325 C464.961635,124.62308 466.239299,122.726521 467.518553,120.828275 C467.671109,121.632417 467.822077,122.436558 467.973045,123.239013 C468.173276,124.299401 469.697256,123.849284 469.497025,122.793954 C469.234818,121.399772 468.971022,120.003904 468.708814,118.609722 C468.623001,118.152862 468.131959,117.920218 467.736264,118.024739 C466.271082,118.407423 464.8059,118.791792 463.340717,119.174476 C462.350686,119.434094 462.770218,121.050805 463.760249,120.791187 C464.508731,120.595631 465.257214,120.400074 466.004107,120.204518 C464.550049,122.362381 463.094401,124.52193 461.638754,126.681479 C461.041239,127.569912 460.442136,128.458345 459.843032,129.346777 C458.613042,131.170846 459.353578,133.836144 461.249416,134.729635 C462.082123,135.120747 463.181804,134.972394 464.07013,134.972394 L469.28567,134.972394 L477.444288,134.972394 C478.462923,134.972394 478.462923,133.296679 477.444288,133.296679" id="Fill-88" fill="#2B292A" mask="url(#mask-4)"></path>
                <path d="M485.232646,108.543673 C486.478392,110.100689 487.724137,111.657705 488.968198,113.216286 C488.099544,113.091098 487.229206,112.967476 486.360551,112.842289 C485.305034,112.692064 484.850506,114.191181 485.916123,114.342971 L490.412589,114.987685 C490.828399,115.047149 491.356999,114.895359 491.442854,114.44312 C491.68527,113.161516 491.927685,111.879912 492.1701,110.596743 C492.356962,109.615588 490.742544,109.196211 490.555682,110.183625 C490.432791,110.836164 490.3099,111.490267 490.185325,112.14437 C488.821739,110.437129 487.45647,108.731454 486.092884,107.025778 C484.503717,105.038431 482.869098,101.933788 479.818705,102.001076 C477.081433,102.062105 475.366008,105.561087 474.042825,107.365348 C472.485643,109.485706 470.928462,111.606065 469.369597,113.727988 C468.760192,114.558918 470.211317,115.336644 470.815672,114.513538 C472.066467,112.809427 473.318946,111.105316 474.569741,109.401205 C475.411461,108.254177 476.253181,107.107149 477.096584,105.961686 C477.685788,105.158923 478.189136,104.270094 479.108294,103.758391 C481.48026,102.437666 484.185547,107.233901 485.232646,108.543673" id="Fill-89" fill="#2B292A" mask="url(#mask-4)"></path>
                <path d="M498.362992,125.785349 C496.508376,123.304696 494.655384,120.824043 492.800769,118.34339 C492.190142,117.526628 490.787001,118.317816 491.405747,119.145766 C492.96317,121.228428 494.520592,123.312688 496.078014,125.396948 C496.924122,126.528586 497.770229,127.660224 498.616337,128.791863 C499.407228,129.851575 500.204615,132.458498 498.008958,132.458498 L484.018141,132.458498 C484.575175,131.911859 485.130585,131.366819 485.685996,130.821779 C486.424919,130.096124 485.283242,128.972477 484.544319,129.696534 C483.508203,130.714689 482.472086,131.731245 481.43597,132.747801 C481.119289,133.059481 481.132281,133.559768 481.43597,133.871448 C482.369774,134.83366 483.301954,135.795872 484.235758,136.756486 C484.956817,137.499722 486.096869,136.372879 485.377434,135.632839 C484.864248,135.103782 484.351062,134.576324 483.8395,134.047267 L491.231978,134.047267 L496.487264,134.047267 C497.620821,134.047267 498.697537,134.152759 499.696301,133.510218 C503.027139,131.362024 499.883062,127.82006 498.362992,125.785349" id="Fill-90" fill="#2B292A" mask="url(#mask-4)"></path>
                <path d="M510.155372,287.877837 C500.729484,287.877837 493.06151,295.558506 493.06151,305 C493.06151,314.439884 500.729484,322.120554 510.155372,322.120554 C519.58126,322.120554 527.249234,314.439884 527.249234,305 C527.249234,295.558506 519.58126,287.877837 510.155372,287.877837 M510.155372,325 C499.145112,325 490.18843,316.026879 490.18843,305 C490.18843,293.971511 499.145112,285 510.155372,285 C521.165632,285 530.122314,293.971511 530.122314,305 C530.122314,316.026879 521.165632,325 510.155372,325" id="Fill-91" fill="#000000" mask="url(#mask-4)"></path>
                <path d="M581.038017,287.877837 C571.612129,287.877837 563.944154,295.558506 563.944154,305 C563.944154,314.439884 571.612129,322.120554 581.038017,322.120554 C590.463904,322.120554 598.131879,314.439884 598.131879,305 C598.131879,295.558506 590.463904,287.877837 581.038017,287.877837 M581.038017,325 C570.027757,325 561.071074,316.026879 561.071074,305 C561.071074,293.971511 570.027757,285 581.038017,285 C592.048276,285 601.004959,293.971511 601.004959,305 C601.004959,316.026879 592.048276,325 581.038017,325" id="Fill-92" fill="#000000" mask="url(#mask-4)"></path>
                <path d="M545.537916,303.050914 L579.34334,303.050914 L565.45757,270.950736 L531.683181,270.950736 L545.537916,303.050914 Z M510.616861,306 C510.381647,306 510.143167,305.942272 509.921021,305.821867 C509.212113,305.432614 508.949131,304.538652 509.33462,303.822822 L528.15661,268.798299 C528.203979,268.707583 528.259516,268.620166 528.324853,268.540996 C528.377123,268.475021 528.435926,268.413994 528.49963,268.359564 C528.747911,268.141846 529.069696,268.008247 529.422517,268.001649 L529.422517,268.001649 C529.433951,268.001649 529.443751,268 529.453552,268 L529.455185,268 L566.414758,268 C566.994625,268 567.520589,268.348019 567.752536,268.885716 L582.91238,303.93498 C583.110025,304.391857 583.065922,304.916359 582.796407,305.333652 C582.526891,305.749295 582.066265,306 581.574603,306 L544.580728,306 C543.999227,306 543.474897,305.651981 543.241317,305.114284 L529.311443,272.834324 L511.902369,305.228091 C511.637754,305.721255 511.134658,306 510.616861,306 L510.616861,306 Z" id="Fill-93" fill="#000000" mask="url(#mask-4)"></path>
                <path d="M558.030125,267.980367 L570.102107,267.980367 L570.102107,266.021322 L558.030125,266.021322 L558.030125,267.980367 Z M570.471573,271 L557.660658,271 C556.238873,271 555.080992,269.81444 555.080992,268.356977 L555.080992,265.643023 C555.080992,264.18556 556.238873,263 557.660658,263 L570.471573,263 C571.893359,263 573.05124,264.18556 573.05124,265.643023 L573.05124,268.356977 C573.05124,269.81444 571.893359,271 570.471573,271 L570.471573,271 Z" id="Fill-94" fill="#000000" mask="url(#mask-4)"></path>
                <path d="M528.699806,272 C527.913767,272 527.277298,271.316876 527.277298,270.473218 L527.277298,264.055271 L517.567963,264.055271 C516.781924,264.055271 516.145455,263.370439 516.145455,262.526782 C516.145455,261.684832 516.781924,261 517.567963,261 L528.699806,261 C529.485845,261 530.122314,261.684832 530.122314,262.526782 L530.122314,270.473218 C530.122314,271.316876 529.485845,272 528.699806,272" id="Fill-95" fill="#000000" mask="url(#mask-4)"></path>
                <path d="M330.452893,294 C329.901233,294 329.454545,293.338665 329.454545,292.521917 L329.454545,215.478083 C329.454545,214.661335 329.901233,214 330.452893,214 C331.004552,214 331.45124,214.661335 331.45124,215.478083 L331.45124,292.521917 C331.45124,293.338665 331.004552,294 330.452893,294" id="Fill-96" fill="#000000" mask="url(#mask-4)"></path>
                <path d="M330.933399,235 C330.546614,235 330.15983,234.862916 329.864652,234.590323 L319.918515,225.407254 C319.324766,224.858917 319.321373,223.967082 319.911729,223.415593 C320.502085,222.864105 321.462261,222.860954 322.056009,223.409291 L332.002147,232.592359 C332.595895,233.140696 332.599288,234.032532 332.008932,234.58402 C331.713754,234.86134 331.323577,235 330.933399,235" id="Fill-97" fill="#000000" mask="url(#mask-4)"></path>
                <path d="M330.872549,252 C330.599584,252 330.325033,251.919783 330.082221,251.751163 C329.431549,251.299327 329.258566,250.389107 329.696579,249.719538 L340.835761,232.646362 C341.273775,231.975157 342.154562,231.798351 342.805234,232.250187 C343.454318,232.702023 343.627302,233.610606 343.189289,234.281812 L332.050106,251.353351 C331.777141,251.774082 331.328019,252 330.872549,252" id="Fill-98" fill="#000000" mask="url(#mask-4)"></path>
                <path d="M330.952066,195.948496 C312.481991,195.948496 297.456019,210.999345 297.456019,229.5 C297.456019,248.000655 312.481991,263.051504 330.952066,263.051504 C349.422142,263.051504 364.448114,248.000655 364.448114,229.5 C364.448114,210.999345 349.422142,195.948496 330.952066,195.948496 M330.952066,266 C310.858718,266 294.512397,249.626615 294.512397,229.5 C294.512397,209.373385 310.858718,193 330.952066,193 C351.045414,193 367.391736,209.373385 367.391736,229.5 C367.391736,249.626615 351.045414,266 330.952066,266" id="Fill-99" fill="#000000" mask="url(#mask-4)"></path>
                <path d="M92.8417233,272.158665 C89.7280705,275.153673 86.6127473,278.150287 83.4990945,281.145294 L83.4990945,270.339809 C85.5186257,268.397232 87.538157,266.454654 89.5576882,264.512077 C90.4012476,265.930849 91.1546046,267.389791 91.7927029,268.86962 C92.2420445,269.907589 92.6329215,270.987335 92.9302553,272.089574 C92.9001878,272.110462 92.8701204,272.13135 92.8417233,272.158665 M72.8652351,272.158665 C72.8368381,272.132957 72.808441,272.112069 72.780044,272.091181 C73.062344,271.061246 73.4231536,270.053805 73.8207123,269.08814 C74.4638219,267.529579 75.2472463,265.991906 76.1359069,264.499223 C78.1554382,266.440193 80.173299,268.382771 82.1911598,270.323741 L82.1911598,281.130833 C79.0825183,278.13904 75.9738767,275.148852 72.8652351,272.158665 M93.4948554,269.632833 C91.6741035,264.73381 88.5069974,260.03242 84.8521303,256.198682 C84.2808485,255.599359 83.3587796,256.491113 83.9267206,257.087222 C85.7524837,259.002484 87.42958,261.13948 88.8744886,263.400197 C88.8577845,263.413051 88.8394099,263.424298 88.8227058,263.440366 C87.0487255,265.146749 85.2730748,266.854738 83.4990945,268.561121 L83.4990945,256.643755 C83.4990945,255.83234 82.1911598,255.83234 82.1911598,256.643755 L82.1911598,268.546661 C80.4221908,266.843491 78.6532217,265.141928 76.8842526,263.440366 C76.8642077,263.421084 76.8424923,263.406624 76.8207769,263.390556 C78.2723672,261.128233 79.9628267,258.992844 81.7785674,257.087222 C82.3465084,256.491113 81.4261099,255.599359 80.8548281,256.198682 C77.2350397,259.995464 74.1848627,264.597235 72.2956237,269.411099 C70.9459287,272.852787 70.3228641,276.71866 71.5172105,280.285676 C72.9621192,284.599836 76.9794663,287.281525 81.1438099,288.949345 C81.9205527,289.261058 82.256306,288.044737 81.4912561,287.736239 C77.4688978,286.126262 73.7856336,283.50081 72.574583,279.30073 C72.0300278,277.414389 72.0717882,275.449317 72.4426202,273.530841 C75.6915766,276.655997 78.9422034,279.782759 82.1911598,282.907914 L82.1911598,288.300213 C82.1911598,289.111629 83.4990945,289.111629 83.4990945,288.300213 L83.4990945,282.923982 L93.259327,273.535662 C93.6000915,275.373799 93.6385111,277.248892 93.1891695,279.083817 C92.1384788,283.388336 88.2530944,286.119835 84.2157023,287.736239 C83.448982,288.044737 83.7847354,289.261058 84.5631486,288.949345 C88.7274922,287.281525 92.5009587,284.702669 94.1129088,280.499375 C95.4559222,276.995024 94.7660409,273.053633 93.4948554,269.632833" id="Fill-100" fill="#2B292A" mask="url(#mask-4)"></path>
                <path d="M62.2606256,196.936124 C57.6164764,196.936124 53.8381024,200.734365 53.8381024,205.402934 L53.8381024,303.63336 C53.8381024,308.200117 54.7316478,309.062234 59.4705423,309.062234 L106.230574,309.062234 C111.253705,309.062234 111.889151,308.51869 111.889151,304.214673 L111.889151,205.402934 C111.889151,200.734365 108.109143,196.936124 103.464994,196.936124 L62.2606256,196.936124 Z M106.230574,312 L59.4705423,312 C53.1552834,312 50.9157025,309.809402 50.9157025,303.63336 L50.9157025,205.402934 C50.9157025,199.115227 56.0058076,194 62.2606256,194 L103.464994,194 C109.719812,194 114.809917,199.115227 114.809917,205.402934 L114.809917,304.214673 C114.809917,310.834089 112.042704,312 106.230574,312 L106.230574,312 Z" id="Fill-101" fill="#000000" mask="url(#mask-4)"></path>
                <path d="M65.0303359,206.861494 C63.2734095,206.861494 61.8454956,208.252231 61.8454956,209.959845 L61.8454956,231.040155 C61.8454956,232.747769 63.2734095,234.138506 65.0303359,234.138506 L100.695284,234.138506 C102.45221,234.138506 103.880124,232.747769 103.880124,231.040155 L103.880124,209.959845 C103.880124,208.252231 102.45221,206.861494 100.695284,206.861494 L65.0303359,206.861494 Z M100.695284,237 L65.0303359,237 C61.6513782,237 58.9024793,234.325752 58.9024793,231.040155 L58.9024793,209.959845 C58.9024793,206.674248 61.6513782,204 65.0303359,204 L100.695284,204 C104.074242,204 106.82314,206.674248 106.82314,209.959845 L106.82314,231.040155 C106.82314,234.325752 104.074242,237 100.695284,237 L100.695284,237 Z" id="Fill-102" fill="#000000" mask="url(#mask-4)"></path>
                <path d="M47.314223,312.780427 C47.0612219,312.780427 46.8457629,312.984139 46.8457629,313.226726 L46.8457629,321.773274 C46.8457629,322.014306 47.0612219,322.218018 47.314223,322.218018 L119.409744,322.218018 C119.664377,322.218018 119.878204,322.014306 119.878204,321.773274 L119.878204,313.226726 C119.878204,312.984139 119.664377,312.780427 119.409744,312.780427 L47.314223,312.780427 Z M119.409744,325 L47.314223,325 C45.4469116,325 43.9272727,323.55225 43.9272727,321.773274 L43.9272727,313.226726 C43.9272727,311.44775 45.4469116,310 47.314223,310 L119.409744,310 C121.278688,310 122.796694,311.44775 122.796694,313.226726 L122.796694,321.773274 C122.796694,323.55225 121.278688,325 119.409744,325 L119.409744,325 Z" id="Fill-103" fill="#000000" mask="url(#mask-4)"></path>
                <path d="M442.205237,32.5404568 C442.058506,42.1624221 434.393037,49.8438366 424.791045,49.9908725 C415.18744,50.1379084 407.520358,41.9410604 407.376852,32.5404568 C407.230122,22.9168758 415.409955,15.2338455 424.791045,15.0900412 C434.393037,14.9430053 442.061731,23.1398533 442.205237,32.5404568 C442.226198,33.8702431 444.285265,33.8718589 444.264463,32.5404568 C444.12886,23.595503 438.167724,15.896315 429.523513,13.6067559 C420.868014,11.3139651 411.7304,15.7169635 407.54132,23.4775512 C403.27323,31.3835589 405.406469,41.365843 411.998063,47.2505109 C418.688015,53.2240467 428.875318,53.5084239 436.116719,48.4106404 C441.261968,44.7896791 444.169171,38.7773646 444.264463,32.5404568 C444.285265,31.2090547 442.226198,31.2106705 442.205237,32.5404568" id="Fill-104" fill="#2B292A" mask="url(#mask-4)"></path>
                <path d="M398.709374,13.5712072 C401.617483,15.6381382 404.525593,17.7065583 407.433702,19.7734892 C408.503429,20.5344415 410.034013,19.1971908 408.952513,18.4287928 C406.044403,16.3618618 403.136294,14.2934417 400.228184,12.2265108 C399.160139,11.4655585 397.629555,12.8028092 398.709374,13.5712072" id="Fill-105" fill="#2B292A" mask="url(#mask-4)"></path>
                <path d="M416.186205,12.3808605 C414.545835,9.10107309 412.903818,5.8212857 411.263448,2.54149831 C410.649132,1.31220523 408.834185,2.39431765 409.446853,3.6185932 C411.087223,6.89838059 412.72924,10.1798405 414.36961,13.4596279 C414.983925,14.6872485 416.798873,13.605136 416.186205,12.3808605" id="Fill-106" fill="#2B292A" mask="url(#mask-4)"></path>
                <path d="M392.675153,41.9666062 C396.306933,41.0637489 399.938712,40.1608916 403.570492,39.2580342 C404.901537,38.9257827 404.337956,36.702948 403.008569,37.0333938 C399.37679,37.9362511 395.74501,38.8391084 392.111573,39.7419658 C390.780528,40.0742173 391.345766,42.297052 392.675153,41.9666062" id="Fill-107" fill="#2B292A" mask="url(#mask-4)"></path>
                <path d="M403.568311,27.7370754 C399.938801,26.8358724 396.30929,25.9346695 392.67978,25.0334665 C391.345744,24.7023015 390.778529,26.9299739 392.114229,27.2629485 C395.743739,28.1641515 399.373249,29.0653545 403.004422,29.9665575 C404.336795,30.2977224 404.90401,28.0682403 403.568311,27.7370754" id="Fill-108" fill="#2B292A" mask="url(#mask-4)"></path>
                <path d="M423.299174,0.984438182 L423.299174,12.0155618 C423.299174,13.3281461 425.295868,13.3281461 425.295868,12.0155618 L425.295868,0.984438182 C425.295868,-0.328146061 423.299174,-0.328146061 423.299174,0.984438182" id="Fill-109" fill="#2B292A" mask="url(#mask-4)"></path>
                <path d="M435.293313,13.4520539 C436.912021,10.1764786 438.532444,6.90090335 440.151153,3.62532806 C440.761598,2.39093228 438.873676,1.30853922 438.259802,2.54794608 C436.641093,5.82352137 435.022385,9.09909665 433.401962,12.3746719 C432.793232,13.6090677 434.681153,14.6914608 435.293313,13.4520539" id="Fill-110" fill="#2B292A" mask="url(#mask-4)"></path>
                <path d="M400.229555,54.774402 C403.136931,52.7089653 406.044306,50.6435287 408.951682,48.5780921 C410.034591,47.8097317 408.504394,46.4647265 407.433255,47.225598 C404.525879,49.2910347 401.618504,51.3564713 398.711128,53.4219079 C397.628218,54.1902683 399.158416,55.5352735 400.229555,54.774402" id="Fill-111" fill="#2B292A" mask="url(#mask-4)"></path>
                <path d="M456.483336,39.7419791 C452.851423,38.8391176 449.219511,37.9362561 445.587598,37.0333946 C444.258163,36.7029472 443.692904,38.9257923 445.023997,39.2562396 C448.65591,40.1591011 452.287822,41.0637684 455.921392,41.9666299 C457.249171,42.2970772 457.814429,40.0724264 456.483336,39.7419791" id="Fill-112" fill="#2B292A" mask="url(#mask-4)"></path>
                <path d="M440.626417,46.893371 C443.565402,49.5059708 446.502775,52.1167738 449.441761,54.7293736 C450.468713,55.6421664 451.935787,54.0286075 450.89755,53.1050337 C447.960177,50.4942307 445.021192,47.8816309 442.082206,45.2708279 C441.055254,44.3580351 439.58818,45.9697972 440.626417,46.893371" id="Fill-113" fill="#2B292A" mask="url(#mask-4)"></path>
                <path d="M445.586582,29.9666062 C449.218663,29.0637489 452.850744,28.1608916 456.482826,27.2580342 C457.813981,26.9257827 457.250354,24.702948 455.920856,25.0333938 C452.288775,25.9362511 448.656694,26.8391084 445.024612,27.7419658 C443.693457,28.0742173 444.257084,30.297052 445.586582,29.9666062" id="Fill-114" fill="#2B292A" mask="url(#mask-4)"></path>
                <path d="M449.37419,12.2243801 C446.462685,14.2935635 443.551179,16.3612573 440.639674,18.428951 C439.562702,19.1946531 441.084511,20.5323973 442.149777,19.7756333 C445.061282,17.7064499 447.972787,15.6387562 450.884293,13.5695728 C451.961265,12.8053604 450.439456,11.4676162 449.37419,12.2243801" id="Fill-115" fill="#2B292A" mask="url(#mask-4)"></path>
                <path d="M440.155661,61.445097 C438.510868,58.138185 436.864423,54.831273 435.21963,51.524361 C434.628429,50.3384119 432.810239,51.3741195 433.398137,52.5536754 C435.04293,55.8621857 436.689375,59.1690977 438.334168,62.4760097 C438.923718,63.6619588 440.743559,62.6246529 440.155661,61.445097" id="Fill-116" fill="#2B292A" mask="url(#mask-4)"></path>
                <path d="M423.299174,54.9939379 L423.299174,66.0060621 C423.299174,67.3313126 425.295868,67.3313126 425.295868,66.0060621 L425.295868,54.9939379 C425.295868,53.6686874 423.299174,53.6686874 423.299174,54.9939379" id="Fill-117" fill="#2B292A" mask="url(#mask-4)"></path>
                <path d="M411.262811,62.4607584 C412.903582,59.178044 414.546001,55.8953297 416.186772,52.6126153 C416.797943,51.3924178 414.982552,50.3153812 414.369733,51.5389081 C412.728962,54.8216224 411.088191,58.1043367 409.445772,61.3870511 C408.836249,62.6089133 410.649993,63.6842853 411.262811,62.4607584" id="Fill-118" fill="#2B292A" mask="url(#mask-4)"></path>
                <path d="M99.0596896,29.4227672 L99.0596896,29.4227672 L94.056999,29.4178513 C93.9427823,29.4178513 93.8497773,29.3244493 93.8497773,29.2081063 C93.8497773,29.0934021 93.9427823,29 94.056999,29 L94.0586306,29 L99.0596896,29.0049159 C99.175538,29.0049159 99.268543,29.098318 99.268543,29.2130222 C99.268543,29.3293652 99.1739063,29.4227672 99.0596896,29.4227672 M109.063439,29.432599 L109.063439,29.432599 L104.060749,29.4276831 C103.946532,29.4276831 103.853527,29.3342811 103.853527,29.2179381 C103.853527,29.1032339 103.946532,29.0098318 104.060749,29.0098318 L104.06238,29.0098318 L109.063439,29.0147477 C109.179288,29.0147477 109.272293,29.1081498 109.272293,29.222854 C109.272293,29.339197 109.177656,29.432599 109.063439,29.432599 M119.067189,29.4424308 L119.067189,29.4424308 L114.064498,29.4375149 C113.950282,29.4375149 113.857277,29.3441129 113.857277,29.2277699 C113.857277,29.1130657 113.950282,29.0196636 114.06613,29.0196636 L114.06613,29.0196636 L119.067189,29.0245795 C119.183037,29.0245795 119.276042,29.1179816 119.276042,29.2326858 C119.276042,29.3490288 119.183037,29.4424308 119.067189,29.4424308 M129.070938,29.4522626 L129.070938,29.4522626 L124.068248,29.4473467 C123.954031,29.4473467 123.861026,29.3539447 123.861026,29.2376017 C123.861026,29.1228974 123.954031,29.0294954 124.068248,29.0294954 L124.06988,29.0294954 L129.070938,29.0344113 C129.186787,29.0344113 129.279792,29.1278133 129.279792,29.2441563 C129.279792,29.3588606 129.186787,29.4522626 129.070938,29.4522626 M139.074688,29.4620944 L139.074688,29.4620944 L134.071997,29.4571785 C133.957781,29.4571785 133.864776,29.3637765 133.864776,29.2474335 C133.864776,29.1327292 133.957781,29.0393272 134.071997,29.0393272 L134.073629,29.0393272 L139.074688,29.0442431 C139.190536,29.0442431 139.283541,29.1376451 139.283541,29.2539881 C139.283541,29.3686923 139.188905,29.4620944 139.074688,29.4620944 M149.078438,29.4719262 L149.078438,29.4719262 L144.075747,29.4670103 C143.96153,29.4670103 143.868525,29.3736082 143.868525,29.2572653 C143.868525,29.142561 143.96153,29.049159 144.075747,29.049159 L144.077379,29.049159 L149.078438,29.0540749 C149.194286,29.0540749 149.287291,29.1474769 149.287291,29.2638199 C149.287291,29.3785241 149.192654,29.4719262 149.078438,29.4719262 M159.082187,29.481758 L159.082187,29.481758 L154.079497,29.4768421 C153.96528,29.4768421 153.872275,29.38344 153.872275,29.2687358 C153.872275,29.1523928 153.96528,29.0589908 154.081128,29.0589908 L154.081128,29.0589908 L159.082187,29.0639067 C159.198036,29.0639067 159.291041,29.1573087 159.291041,29.2736517 C159.291041,29.3883559 159.198036,29.481758 159.082187,29.481758 M169.085937,29.4915898 L169.085937,29.4915898 L164.083246,29.4866739 C163.96903,29.4866739 163.876025,29.3932718 163.876025,29.2785676 C163.876025,29.1622246 163.96903,29.0688226 164.084878,29.0688226 L164.084878,29.0688226 L169.085937,29.0737385 C169.201785,29.0737385 169.29479,29.1671405 169.29479,29.2834835 C169.29479,29.3981877 169.201785,29.4915898 169.085937,29.4915898 M179.089687,29.5030602 L179.089687,29.5030602 L174.086996,29.4981443 C173.972779,29.4965057 173.879774,29.4031036 173.879774,29.2883993 C173.879774,29.1720564 173.972779,29.0786544 174.086996,29.0786544 L174.088628,29.0786544 L179.089687,29.0835703 C179.205535,29.0835703 179.29854,29.1769723 179.29854,29.2933152 C179.29854,29.4080195 179.203903,29.5030602 179.089687,29.5030602 M189.093436,29.512892 L189.093436,29.512892 L184.090746,29.5063375 C183.976529,29.5063375 183.883524,29.4129354 183.883524,29.2982311 C183.883524,29.1818882 183.976529,29.0884862 184.090746,29.0884862 L184.092377,29.0884862 L189.093436,29.0934021 C189.209285,29.0934021 189.30229,29.1868041 189.30229,29.303147 C189.30229,29.4178513 189.207653,29.512892 189.093436,29.512892 M199.097186,29.5227238 L199.097186,29.5227238 L194.094495,29.5178079 C193.980279,29.5161693 193.887274,29.4227672 193.887274,29.3080629 C193.887274,29.19172 193.980279,29.098318 194.094495,29.098318 L194.096127,29.098318 L199.097186,29.1032339 C199.213034,29.1032339 199.306039,29.1982746 199.306039,29.3129788 C199.306039,29.4276831 199.211403,29.5227238 199.097186,29.5227238 M209.100935,29.5325556 L209.100935,29.5325556 L204.098245,29.5276397 C203.984028,29.5276397 203.891023,29.432599 203.891023,29.3178947 C203.891023,29.2015518 203.984028,29.1081498 204.099877,29.1081498 L204.099877,29.1081498 L209.100935,29.1130657 C209.216784,29.1130657 209.309789,29.2081063 209.309789,29.3228106 C209.309789,29.4391536 209.216784,29.5325556 209.100935,29.5325556 M219.104685,29.5423874 L219.104685,29.5423874 L214.101994,29.5374715 C213.987778,29.5374715 213.894773,29.4424308 213.894773,29.3277265 C213.894773,29.2113836 213.987778,29.1179816 214.103626,29.1179816 L214.103626,29.1179816 L219.104685,29.1228974 C219.220533,29.1228974 219.313538,29.2179381 219.313538,29.3326424 C219.313538,29.4489853 219.220533,29.5423874 219.104685,29.5423874 M229.108435,29.5522192 L229.108435,29.5522192 L224.105744,29.5473033 C223.991527,29.5473033 223.898522,29.4522626 223.898522,29.3375583 C223.898522,29.2212154 223.991527,29.1278133 224.105744,29.1278133 L224.107376,29.1278133 L229.108435,29.1327292 C229.224283,29.1343679 229.317288,29.2277699 229.317288,29.3424742 C229.317288,29.4588171 229.222651,29.5522192 229.108435,29.5522192 M239.112184,29.562051 L239.112184,29.562051 L234.109494,29.5571351 C233.995277,29.5571351 233.902272,29.4620944 233.902272,29.3473901 C233.902272,29.2310472 233.995277,29.1376451 234.109494,29.1376451 L234.111125,29.1376451 L239.112184,29.142561 C239.228033,29.142561 239.321038,29.2376017 239.321038,29.352306 C239.321038,29.4686489 239.226401,29.562051 239.112184,29.562051 M249.115934,29.5718828 L249.115934,29.5718828 L244.113243,29.5669669 C243.999027,29.5669669 243.906022,29.4735648 243.906022,29.3572219 C243.906022,29.2425176 243.999027,29.1491156 244.113243,29.1491156 L244.114875,29.1491156 L249.115934,29.1523928 C249.231782,29.1540315 249.324787,29.2474335 249.324787,29.3621378 C249.324787,29.4784807 249.231782,29.5718828 249.115934,29.5718828 M259.119684,29.5817146 L259.119684,29.5817146 L254.116993,29.5767987 C254.002776,29.5767987 253.909771,29.4833966 253.909771,29.3670537 C253.909771,29.2523494 254.002776,29.1589474 254.116993,29.1589474 L254.118625,29.1589474 L259.119684,29.1638633 C259.235532,29.1638633 259.328537,29.2572653 259.328537,29.3719696 C259.328537,29.4883125 259.2339,29.5817146 259.119684,29.5817146 M269.123433,29.5915464 L269.123433,29.5915464 L264.120743,29.5866305 C264.006526,29.5866305 263.913521,29.4932284 263.913521,29.3768855 C263.913521,29.2621812 264.006526,29.1687792 264.120743,29.1687792 L264.122374,29.1687792 L269.123433,29.1736951 C269.239282,29.1736951 269.332287,29.2670971 269.332287,29.3818014 C269.332287,29.4981443 269.23765,29.5915464 269.123433,29.5915464 M279.127183,29.6013782 L279.125551,29.6013782 L274.124492,29.5964623 C274.010276,29.5964623 273.917271,29.5030602 273.917271,29.3867173 C273.917271,29.272013 274.010276,29.178611 274.124492,29.178611 L274.126124,29.178611 L279.127183,29.1835269 C279.2414,29.1835269 279.334405,29.2769289 279.334405,29.3932718 C279.334405,29.5079761 279.2414,29.6013782 279.127183,29.6013782 M289.130932,29.61121 L289.129301,29.61121 L284.128242,29.6062941 C284.014025,29.6062941 283.919388,29.512892 283.919388,29.3965491 C283.919388,29.2818448 284.014025,29.1884428 284.128242,29.1884428 L289.130932,29.1933587 C289.245149,29.1933587 289.338154,29.2867607 289.338154,29.4031036 C289.338154,29.5178079 289.245149,29.61121 289.130932,29.61121 M299.134682,29.6210418 L299.13305,29.6210418 L294.131991,29.6161259 C294.017775,29.6161259 293.923138,29.5227238 293.923138,29.4063809 C293.923138,29.2916766 294.017775,29.1982746 294.131991,29.1982746 L299.134682,29.2031905 C299.248899,29.2031905 299.341904,29.2965925 299.341904,29.4129354 C299.341904,29.5276397 299.248899,29.6210418 299.134682,29.6210418 M309.138432,29.6308736 L309.1368,29.6308736 L304.135741,29.6259577 C304.021524,29.6259577 303.926888,29.5325556 303.926888,29.4162127 C303.926888,29.3015084 304.021524,29.2081063 304.135741,29.2081063 L309.138432,29.2130222 C309.252648,29.2130222 309.345653,29.3064243 309.345653,29.4227672 C309.345653,29.5374715 309.252648,29.6308736 309.138432,29.6308736 M319.142181,29.6407054 L319.14055,29.6407054 L314.139491,29.6357895 C314.025274,29.6357895 313.930637,29.5423874 313.930637,29.4276831 C313.930637,29.3113402 314.025274,29.2179381 314.139491,29.2179381 L319.142181,29.222854 C319.256398,29.222854 319.349403,29.3162561 319.349403,29.432599 C319.349403,29.5473033 319.256398,29.6407054 319.142181,29.6407054 M329.145931,29.6505372 L329.144299,29.6505372 L324.14324,29.6456213 C324.029024,29.6456213 323.934387,29.5522192 323.934387,29.4375149 C323.934387,29.321172 324.029024,29.2277699 324.14324,29.2277699 L329.145931,29.2326858 C329.260148,29.2326858 329.353153,29.3260879 329.353153,29.4424308 C329.353153,29.5571351 329.260148,29.6505372 329.145931,29.6505372 M339.149681,29.6620076 L339.148049,29.6620076 L334.14699,29.6570917 C334.032773,29.6570917 333.938137,29.562051 333.938137,29.4473467 C333.938137,29.3310038 334.032773,29.2376017 334.14699,29.2376017 L339.149681,29.2425176 C339.263897,29.2425176 339.356902,29.3359197 339.356902,29.4522626 C339.356902,29.5669669 339.263897,29.6620076 339.149681,29.6620076 M349.15343,29.6718394 L349.151799,29.6718394 L344.15074,29.6669235 C344.036523,29.6652849 343.941886,29.5718828 343.941886,29.4571785 C343.941886,29.3408356 344.036523,29.2474335 344.15074,29.2474335 L349.15343,29.2523494 C349.267647,29.2523494 349.360652,29.3457515 349.360652,29.4620944 C349.360652,29.5767987 349.267647,29.6718394 349.15343,29.6718394 M359.15718,29.6816712 L359.155548,29.6816712 L354.154489,29.6767553 C354.040273,29.6767553 353.945636,29.5817146 353.945636,29.4670103 C353.945636,29.3506674 354.040273,29.2572653 354.154489,29.2572653 L359.15718,29.2621812 C359.271397,29.2621812 359.364402,29.3572219 359.364402,29.4719262 C359.364402,29.5882691 359.271397,29.6816712 359.15718,29.6816712 M369.16093,29.691503 L369.159298,29.691503 L364.158239,29.6865871 C364.044022,29.6865871 363.949386,29.593185 363.949386,29.4768421 C363.949386,29.3604992 364.044022,29.2670971 364.158239,29.2670971 L369.16093,29.272013 C369.275146,29.272013 369.368151,29.3670537 369.368151,29.481758 C369.368151,29.5981009 369.275146,29.691503 369.16093,29.691503 M379.164679,29.7013348 L379.163047,29.7013348 L374.161988,29.6964189 C374.047772,29.6964189 373.953135,29.6013782 373.953135,29.4866739 C373.953135,29.370331 374.047772,29.2769289 374.161988,29.2769289 L379.164679,29.2818448 C379.278896,29.2818448 379.371901,29.3768855 379.371901,29.4915898 C379.371901,29.6079327 379.278896,29.7013348 379.164679,29.7013348 M93.8873056,39.3528812 L93.8873056,39.3528812 C93.7714573,39.3528812 93.6784522,39.2578405 93.6800839,39.1431362 L93.7094539,34.1190884 C93.7094539,34.0043842 93.8040906,33.9109821 93.9183073,33.9109821 L93.9183073,33.9109821 C94.0341556,33.9126207 94.1271606,34.0060228 94.125529,34.1223657 L94.096159,39.1447748 C94.096159,39.2594791 94.0015223,39.3528812 93.8873056,39.3528812 M93.8285656,49.399338 L93.8269339,49.399338 C93.7127172,49.3976994 93.6197122,49.3042973 93.6197122,49.1895931 L93.6490822,44.1655453 C93.6507139,44.0492024 93.7339289,43.9492458 93.8595673,43.957439 C93.9754156,43.957439 94.066789,44.0524797 94.066789,44.1671839 L94.037419,49.1912317 C94.0357873,49.305936 93.9427823,49.399338 93.8285656,49.399338 M93.7698256,59.4457949 L93.7681939,59.4457949 C93.6523456,59.4441563 93.5593406,59.3507542 93.5609722,59.2344113 L93.5903422,54.2120022 C93.5919739,54.0972979 93.6849789,54.0038958 93.7991956,54.0038958 L93.8008273,54.0038958 C93.9150439,54.0038958 94.008049,54.0989365 94.008049,54.2136408 L93.9770473,59.2376886 C93.9770473,59.3523928 93.8840423,59.4457949 93.7698256,59.4457949 M93.7094539,69.4922518 L93.7078222,69.4922518 C93.5936056,69.4906131 93.5006006,69.3972111 93.5006006,69.2808681 L93.5316022,64.258459 C93.5316022,64.1421161 93.6180806,64.0372436 93.7404556,64.0503527 C93.8563039,64.0503527 93.9493089,64.1453934 93.9476773,64.2600977 L93.9183073,69.2841454 C93.9166756,69.3988497 93.8236706,69.4922518 93.7094539,69.4922518 M93.6490822,79.5387086 L93.6490822,79.5387086 C93.5332339,79.53707 93.4402289,79.4436679 93.4418605,79.327325 L93.4712306,74.3049159 C93.4728622,74.188573 93.5658672,74.0968095 93.6800839,74.0968095 L93.6800839,74.0968095 C93.7959323,74.0968095 93.8889373,74.1918502 93.8889373,74.3065545 L93.8579356,79.3306023 C93.8579356,79.4453066 93.7649306,79.5387086 93.6490822,79.5387086 M93.5903422,89.5835269 L93.5887106,89.5835269 C93.4744939,89.5835269 93.3814889,89.4901248 93.3814889,89.3737819 L93.4124905,84.3513728 C93.4124905,84.2350298 93.5038639,84.1236028 93.6213439,84.1432664 C93.7371923,84.1432664 93.8285656,84.2366685 93.8285656,84.3530114 L93.7991956,89.3754205 C93.7975639,89.4917634 93.7045589,89.5835269 93.5903422,89.5835269 M93.5316022,99.6299837 L93.5299706,99.6299837 C93.4141222,99.6299837 93.3211172,99.534943 93.3227489,99.4202387 L93.3521189,94.396191 C93.3537505,94.2814867 93.4451239,94.1880846 93.5609722,94.1880846 L93.5626039,94.1880846 C93.6768206,94.1897233 93.7698256,94.2831253 93.7698256,94.3994683 L93.7388239,99.4218774 C93.7388239,99.5382203 93.6458189,99.6299837 93.5316022,99.6299837 M93.4712306,109.676441 L93.4712306,109.676441 C93.3553822,109.676441 93.2623772,109.5814 93.2623772,109.466696 L93.2933789,104.442648 C93.2933789,104.327944 93.3896472,104.241096 93.5022322,104.234542 C93.6180806,104.23618 93.7110856,104.329582 93.7094539,104.445925 L93.6800839,109.468334 C93.6784522,109.584677 93.5854472,109.676441 93.4712306,109.676441 M93.4124905,119.722897 L93.4108589,119.722897 C93.2950105,119.722897 93.2020055,119.627857 93.2036372,119.513152 L93.2330072,114.489105 C93.2346389,114.3744 93.3276439,114.280998 93.4418605,114.280998 L93.4418605,114.280998 C93.5577089,114.282637 93.6507139,114.376039 93.6507139,114.492382 L93.6197122,119.514791 C93.6197122,119.629495 93.5267072,119.722897 93.4124905,119.722897 M93.3521189,129.769354 L93.3504872,129.769354 C93.2362705,129.769354 93.1432655,129.674314 93.1432655,129.559609 L93.1742672,124.535562 C93.1742672,124.420857 93.2737989,124.327455 93.3831205,124.327455 C93.4989689,124.329094 93.5919739,124.422496 93.5903422,124.538839 L93.5609722,129.561248 C93.5593406,129.675952 93.4663356,129.769354 93.3521189,129.769354 M93.2933789,139.815811 L93.2917472,139.815811 C93.1758988,139.814173 93.0828938,139.72077 93.0845255,139.604428 L93.1138955,134.582018 C93.1155272,134.467314 93.2085322,134.373912 93.3227489,134.373912 L93.3243805,134.373912 C93.4385972,134.373912 93.5316022,134.468953 93.5316022,134.583657 L93.5006006,139.607705 C93.5006006,139.722409 93.4075955,139.815811 93.2933789,139.815811 M93.2330072,149.862268 L93.2330072,149.862268 C93.1171588,149.860629 93.0241538,149.767227 93.0257855,149.650884 L93.0551555,144.628475 C93.0551555,144.512132 93.1595822,144.415453 93.2640089,144.420369 C93.3798572,144.420369 93.4728622,144.51541 93.4712306,144.630114 L93.4418605,149.654162 C93.4418605,149.768866 93.3472239,149.862268 93.2330072,149.862268 M93.1742672,159.908725 L93.1726355,159.908725 C93.0567872,159.907086 92.9637822,159.813684 92.9654138,159.697341 L92.9947838,154.674932 C92.9964155,154.560228 93.0894205,154.466826 93.2036372,154.466826 L93.2052689,154.466826 C93.3194855,154.466826 93.4124905,154.561867 93.4124905,154.676571 L93.3814889,159.700619 C93.3814889,159.815323 93.2884839,159.908725 93.1742672,159.908725 M93.1138955,169.955182 L93.1122638,169.955182 C92.9980472,169.953543 92.9050421,169.860141 92.9066738,169.743798 L92.9360438,164.721389 C92.9360438,164.605046 93.0437338,164.503451 93.1448972,164.513283 C93.2607455,164.513283 93.3537505,164.608323 93.3521189,164.723028 L93.3227489,169.747075 C93.3211172,169.86178 93.2281122,169.955182 93.1138955,169.955182 M93.0551555,180 L93.0535238,180 C92.9376755,180 92.8446705,179.904959 92.8463021,179.790255 L92.8756721,174.767846 C92.8773038,174.651503 92.9703088,174.55974 93.0845255,174.55974 L93.0861572,174.55974 C93.2003738,174.55974 93.2933789,174.653142 93.2933789,174.769485 L93.2623772,179.791894 C93.2623772,179.908237 93.1693722,180 93.0551555,180" id="Fill-119" fill="#A9ABAD" mask="url(#mask-4)"></path>
                <path d="M376.334861,156.063995 L384.956027,156.063995 C385.299448,156.063995 385.620191,156.235269 385.81296,156.522356 C386.005729,156.809444 386.042987,157.173196 385.915014,157.494539 L380.583888,170.857155 L393.253211,153.679211 L384.400398,153.679211 C384.069936,153.679211 383.757293,153.519356 383.562904,153.24858 C383.368514,152.977805 383.315057,152.630363 383.417112,152.313915 L388.025758,138.150389 L376.334861,156.063995 Z M376.634545,179 C376.462834,179 376.289504,178.955958 376.129133,178.866243 C375.675558,178.610148 375.481168,178.055547 375.675558,177.569456 L383.425211,158.14701 L374.416887,158.14701 C374.036208,158.14701 373.686307,157.938219 373.506497,157.600565 C373.325067,157.262911 373.342886,156.853485 373.551854,156.533774 L390.562539,130.469168 C390.847643,130.032012 391.409752,129.87705 391.876287,130.103784 C392.342821,130.328887 392.571228,130.868807 392.409237,131.366317 L385.827539,151.596196 L395.308878,151.596196 C395.700896,151.596196 396.057277,151.818036 396.233847,152.170371 C396.408797,152.521074 396.373159,152.941919 396.139892,153.258367 L377.465559,178.579156 C377.26469,178.851563 376.953667,179 376.634545,179 L376.634545,179 Z" id="Fill-120" fill="#000000" mask="url(#mask-4)"></path>
                <path d="M481.331306,147.440066 C481.260306,147.440066 481.203306,147.346695 481.203306,147.230391 L481.203306,142.209674 C481.203306,142.093371 481.260306,142 481.331306,142 C481.402306,142 481.459306,142.093371 481.459306,142.209674 L481.459306,147.230391 C481.459306,147.346695 481.402306,147.440066 481.331306,147.440066 M481.331306,157.483137 C481.260306,157.483137 481.203306,157.389767 481.203306,157.273463 L481.203306,152.252746 C481.203306,152.136442 481.260306,152.043072 481.331306,152.043072 C481.402306,152.043072 481.459306,152.136442 481.459306,152.252746 L481.459306,157.273463 C481.459306,157.389767 481.402306,157.483137 481.331306,157.483137 M481.331306,167.526209 C481.260306,167.526209 481.203306,167.432839 481.203306,167.316535 L481.203306,162.295818 C481.203306,162.179514 481.260306,162.086144 481.331306,162.086144 C481.402306,162.086144 481.459306,162.179514 481.459306,162.295818 L481.459306,167.316535 C481.459306,167.432839 481.402306,167.526209 481.331306,167.526209 M481.331306,177.569281 C481.260306,177.569281 481.203306,177.475911 481.203306,177.359607 L481.203306,172.33889 C481.203306,172.222586 481.260306,172.129216 481.331306,172.129216 C481.402306,172.129216 481.459306,172.222586 481.459306,172.33889 L481.459306,177.359607 C481.459306,177.475911 481.402306,177.569281 481.331306,177.569281 M481.331306,187.612353 C481.260306,187.612353 481.203306,187.518982 481.203306,187.402679 L481.203306,182.381962 C481.203306,182.265658 481.260306,182.172288 481.331306,182.172288 C481.402306,182.172288 481.459306,182.265658 481.459306,182.381962 L481.459306,187.402679 C481.459306,187.518982 481.402306,187.612353 481.331306,187.612353 M481.331306,197.655425 C481.260306,197.655425 481.203306,197.562054 481.203306,197.445751 L481.203306,192.425034 C481.203306,192.30873 481.260306,192.215359 481.331306,192.215359 C481.402306,192.215359 481.459306,192.30873 481.459306,192.425034 L481.459306,197.445751 C481.459306,197.562054 481.402306,197.655425 481.331306,197.655425 M481.331306,207.698497 C481.260306,207.698497 481.203306,207.605126 481.203306,207.488823 L481.203306,202.468106 C481.203306,202.351802 481.260306,202.258431 481.331306,202.258431 C481.402306,202.258431 481.459306,202.351802 481.459306,202.468106 L481.459306,207.488823 C481.459306,207.605126 481.402306,207.698497 481.331306,207.698497 M481.331306,217.741569 C481.260306,217.741569 481.203306,217.648198 481.203306,217.531894 L481.203306,212.511177 C481.203306,212.394874 481.260306,212.301503 481.331306,212.301503 C481.402306,212.301503 481.459306,212.394874 481.459306,212.511177 L481.459306,217.531894 C481.459306,217.648198 481.402306,217.741569 481.331306,217.741569 M481.331306,227.784641 C481.260306,227.784641 481.203306,227.69127 481.203306,227.574966 L481.203306,222.554249 C481.203306,222.437946 481.260306,222.344575 481.331306,222.344575 C481.402306,222.344575 481.459306,222.437946 481.459306,222.554249 L481.459306,227.574966 C481.459306,227.69127 481.402306,227.784641 481.331306,227.784641 M481.331306,237.827712 C481.260306,237.827712 481.203306,237.734342 481.203306,237.618038 L481.203306,232.597321 C481.203306,232.481018 481.260306,232.387647 481.331306,232.387647 C481.402306,232.387647 481.459306,232.481018 481.459306,232.597321 L481.459306,237.618038 C481.459306,237.734342 481.402306,237.827712 481.331306,237.827712 M481.331306,247.870784 C481.260306,247.870784 481.203306,247.777414 481.203306,247.66111 L481.203306,242.640393 C481.203306,242.524089 481.260306,242.430719 481.331306,242.430719 C481.402306,242.430719 481.459306,242.524089 481.459306,242.640393 L481.459306,247.66111 C481.459306,247.777414 481.402306,247.870784 481.331306,247.870784 M481.331306,257.913856 C481.260306,257.913856 481.203306,257.820486 481.203306,257.704182 L481.203306,252.683465 C481.203306,252.567161 481.260306,252.473791 481.331306,252.473791 C481.402306,252.473791 481.459306,252.567161 481.459306,252.683465 L481.459306,257.704182 C481.459306,257.820486 481.402306,257.913856 481.331306,257.913856 M481.331306,267.956928 C481.260306,267.956928 481.203306,267.863558 481.203306,267.747254 L481.203306,262.726537 C481.203306,262.610233 481.260306,262.516863 481.331306,262.516863 C481.402306,262.516863 481.459306,262.610233 481.459306,262.726537 L481.459306,267.747254 C481.459306,267.863558 481.402306,267.956928 481.331306,267.956928 M481.331306,278 C481.260306,278 481.203306,277.906629 481.203306,277.790326 L481.203306,272.769609 C481.203306,272.653305 481.260306,272.559934 481.331306,272.559934 C481.402306,272.559934 481.459306,272.653305 481.459306,272.769609 L481.459306,277.790326 C481.459306,277.906629 481.402306,278 481.331306,278" id="Fill-121" fill="#A9ABAD" mask="url(#mask-4)"></path>
                <path d="M298.695031,82 C298.670876,82 298.648579,82 298.624424,81.9983786 C297.97038,81.9643284 297.470556,81.474654 297.509576,80.9039077 L299.127964,56.9747222 C299.166984,56.4055974 299.711401,55.967809 300.384026,56.0018592 C301.038071,56.0359094 301.536036,56.5272052 301.498875,57.0979515 L299.878629,81.0255156 C299.841467,81.5751832 299.319346,82 298.695031,82" id="Fill-122" fill="#000000" mask="url(#mask-4)"></path>
                <path d="M311.295051,82 C310.670736,82 310.148616,81.5751806 310.111454,81.0255098 L308.491208,57.097802 C308.454046,56.5270523 308.952012,56.0357535 309.606056,56.0017031 C310.261959,55.9692742 310.823099,56.4038222 310.862119,56.9745719 L312.480507,80.9039012 C312.519527,81.4746509 312.019703,81.9643281 311.365658,81.9983786 C311.341503,82 311.317348,82 311.295051,82" id="Fill-123" fill="#000000" mask="url(#mask-4)"></path>
                <path d="M321.408116,67 L288.581967,67 C287.997501,67 287.523967,66.5520752 287.523967,65.9992169 C287.523967,65.4479248 287.997501,65 288.581967,65 L321.408116,65 C321.992582,65 322.466116,65.4479248 322.466116,65.9992169 C322.466116,66.5520752 321.992582,67 321.408116,67" id="Fill-124" fill="#000000" mask="url(#mask-4)"></path>
                <path d="M321.430353,75 L287.561383,75 C286.989201,75 286.52562,74.5520752 286.52562,73.9992169 C286.52562,73.4479248 286.989201,73 287.561383,73 L321.430353,73 C322.002535,73 322.466116,73.4479248 322.466116,73.9992169 C322.466116,74.5520752 322.002535,75 321.430353,75" id="Fill-125" fill="#000000" mask="url(#mask-4)"></path>
                <path d="M303.500024,85.8703356 L304.494929,85.8703356 L304.494929,82.1296644 L303.500024,82.1296644 L303.500024,85.8703356 Z M305.492963,88 L302.500425,88 C301.948221,88 301.500826,87.5247029 301.500826,86.9360017 L301.500826,81.065666 C301.500826,80.4769648 301.948221,80 302.500425,80 L305.492963,80 C306.045167,80 306.492562,80.4769648 306.492562,81.065666 L306.492562,86.9360017 C306.492562,87.5247029 306.045167,88 305.492963,88 L305.492963,88 Z" id="Fill-126" fill="#000000" mask="url(#mask-4)"></path>
                <path d="M287.737115,79.9292753 L321.254551,79.9292753 L318.945492,58.0707247 L290.046174,58.0707247 L287.737115,79.9292753 Z M322.41728,82 L286.574386,82 C286.277554,82 285.995481,81.8767619 285.797047,81.6578521 C285.598612,81.4405638 285.501854,81.148684 285.533014,80.8568043 L288.061827,56.927529 C288.115945,56.4005239 288.566934,56 289.103199,56 L319.890107,56 C320.426373,56 320.875721,56.4005239 320.931479,56.927529 L323.458652,80.8568043 C323.489812,81.148684 323.394694,81.4405638 323.196259,81.6578521 C322.996185,81.8767619 322.714112,82 322.41728,82 L322.41728,82 Z" id="Fill-127" fill="#000000" mask="url(#mask-4)"></path>
                <path d="M297.793118,89.8477528 L311.198618,89.8477528 C310.794701,88.8533708 309.845739,88.1522472 308.741051,88.1522472 L300.250685,88.1522472 C299.147618,88.1522472 298.198657,88.8533708 297.793118,89.8477528 M312.444434,92 L296.547302,92 C295.974681,92 295.510744,91.5179775 295.510744,90.9247191 C295.510744,88.2095506 297.637391,86 300.250685,86 L308.741051,86 C311.354345,86 313.480992,88.2095506 313.480992,90.9247191 C313.480992,91.5179775 313.017055,92 312.444434,92" id="Fill-128" fill="#000000" mask="url(#mask-4)"></path>
                <path d="M253.814056,162.255 L248.796276,162.255 C248.681715,162.255 248.58843,162.198 248.58843,162.127 C248.58843,162.057 248.681715,162 248.796276,162 L253.814056,162 C253.930254,162 254.02354,162.057 254.02354,162.127 C254.02354,162.198 253.930254,162.255 253.814056,162.255 M263.847979,162.255 L258.8302,162.255 C258.715638,162.255 258.622353,162.198 258.622353,162.127 C258.622353,162.057 258.715638,162 258.8302,162 L263.847979,162 C263.964177,162 264.057463,162.057 264.057463,162.127 C264.057463,162.198 263.964177,162.255 263.847979,162.255 M273.881903,162.255 L268.865759,162.255 C268.749562,162.255 268.656276,162.198 268.656276,162.127 C268.656276,162.057 268.749562,162 268.865759,162 L273.881903,162 C273.9981,162 274.091386,162.057 274.091386,162.127 C274.091386,162.198 273.9981,162.255 273.881903,162.255 M283.915826,162.255 L278.898046,162.255 C278.783485,162.255 278.690199,162.198 278.690199,162.127 C278.690199,162.057 278.783485,162 278.898046,162 L283.915826,162 C284.032024,162 284.125309,162.057 284.125309,162.127 C284.125309,162.198 284.032024,162.255 283.915826,162.255 M293.949749,162.255 L288.931969,162.255 C288.817408,162.255 288.724122,162.198 288.724122,162.127 C288.724122,162.057 288.817408,162 288.931969,162 L293.949749,162 C294.065947,162 294.159232,162.057 294.159232,162.127 C294.159232,162.198 294.065947,162.255 293.949749,162.255 M303.983672,162.255 L298.965892,162.255 C298.851331,162.255 298.758045,162.198 298.758045,162.127 C298.758045,162.057 298.851331,162 298.965892,162 L303.983672,162 C304.09987,162 304.193155,162.057 304.193155,162.127 C304.193155,162.198 304.09987,162.255 303.983672,162.255 M314.017595,162.255 L308.999815,162.255 C308.885254,162.255 308.791969,162.198 308.791969,162.127 C308.791969,162.057 308.885254,162 308.999815,162 L314.017595,162 C314.133793,162 314.227079,162.057 314.227079,162.127 C314.227079,162.198 314.133793,162.255 314.017595,162.255 M324.051518,162.255 L319.035375,162.255 C318.919177,162.255 318.825892,162.198 318.825892,162.127 C318.825892,162.057 318.919177,162 319.035375,162 L324.051518,162 C324.167716,162 324.261002,162.057 324.261002,162.127 C324.261002,162.198 324.167716,162.255 324.051518,162.255 M334.085441,162.255 L329.067662,162.255 C328.9531,162.255 328.859815,162.198 328.859815,162.127 C328.859815,162.057 328.9531,162 329.067662,162 L334.085441,162 C334.201639,162 334.294925,162.057 334.294925,162.127 C334.294925,162.198 334.201639,162.255 334.085441,162.255 M344.119365,162.255 L339.101585,162.255 C338.987024,162.255 338.893738,162.198 338.893738,162.127 C338.893738,162.057 338.987024,162 339.101585,162 L344.119365,162 C344.235562,162 344.328848,162.057 344.328848,162.127 C344.328848,162.198 344.235562,162.255 344.119365,162.255 M354.153288,162.255 L349.135508,162.255 C349.020947,162.255 348.927661,162.198 348.927661,162.127 C348.927661,162.057 349.020947,162 349.135508,162 L354.153288,162 C354.269486,162 354.362771,162.057 354.362771,162.127 C354.362771,162.198 354.269486,162.255 354.153288,162.255 M364.187211,162.255 L359.169431,162.255 C359.05487,162.255 358.961584,162.198 358.961584,162.127 C358.961584,162.057 359.05487,162 359.169431,162 L364.187211,162 C364.303409,162 364.396694,162.057 364.396694,162.127 C364.396694,162.198 364.303409,162.255 364.187211,162.255" id="Fill-129" fill="#A9ABAD" mask="url(#mask-4)"></path>
                <path d="M419.095962,81.4247398 C418.979576,81.4247398 418.886139,81.3316322 418.886139,81.2156561 L418.886139,76.2090836 C418.886139,76.0931075 418.979576,76 419.095962,76 C419.212348,76 419.305785,76.0931075 419.305785,76.2090836 L419.305785,81.2156561 C419.305785,81.3316322 419.212348,81.4247398 419.095962,81.4247398 M419.095962,91.4395183 C418.979576,91.4395183 418.886139,91.3464107 418.886139,91.2304347 L418.886139,86.2238621 C418.886139,86.1078861 418.979576,86.0147785 419.095962,86.0147785 C419.212348,86.0147785 419.305785,86.1078861 419.305785,86.2238621 L419.305785,91.2304347 C419.305785,91.3464107 419.212348,91.4395183 419.095962,91.4395183 M290.730043,98.726409 L285.70576,98.726409 C285.589374,98.726409 285.495937,98.6333014 285.495937,98.5173254 C285.495937,98.4029828 285.589374,98.3082418 285.70576,98.3082418 L290.730043,98.3082418 C290.846429,98.3082418 290.939866,98.4029828 290.939866,98.5173254 C290.939866,98.6333014 290.846429,98.726409 290.730043,98.726409 M300.780248,98.726409 L295.755965,98.726409 C295.639579,98.726409 295.546142,98.6333014 295.546142,98.5173254 C295.546142,98.4029828 295.639579,98.3082418 295.755965,98.3082418 L300.780248,98.3082418 C300.896634,98.3082418 300.990071,98.4029828 300.990071,98.5173254 C300.990071,98.6333014 300.896634,98.726409 300.780248,98.726409 M310.830453,98.726409 L305.80617,98.726409 C305.689784,98.726409 305.596347,98.6333014 305.596347,98.5173254 C305.596347,98.4029828 305.689784,98.3082418 305.80617,98.3082418 L310.830453,98.3082418 C310.946839,98.3082418 311.040276,98.4029828 311.040276,98.5173254 C311.040276,98.6333014 310.946839,98.726409 310.830453,98.726409 M320.880658,98.726409 L315.856375,98.726409 C315.739989,98.726409 315.646552,98.6333014 315.646552,98.5173254 C315.646552,98.4029828 315.739989,98.3082418 315.856375,98.3082418 L320.880658,98.3082418 C320.997044,98.3082418 321.090481,98.4029828 321.090481,98.5173254 C321.090481,98.6333014 320.997044,98.726409 320.880658,98.726409 M330.930863,98.726409 L325.90658,98.726409 C325.790194,98.726409 325.696757,98.6333014 325.696757,98.5173254 C325.696757,98.4029828 325.790194,98.3082418 325.90658,98.3082418 L330.930863,98.3082418 C331.047249,98.3082418 331.140686,98.4029828 331.140686,98.5173254 C331.140686,98.6333014 331.047249,98.726409 330.930863,98.726409 M340.981068,98.726409 L335.956785,98.726409 C335.840399,98.726409 335.746962,98.6333014 335.746962,98.5173254 C335.746962,98.4029828 335.840399,98.3082418 335.956785,98.3082418 L340.981068,98.3082418 C341.097454,98.3082418 341.190891,98.4029828 341.190891,98.5173254 C341.190891,98.6333014 341.097454,98.726409 340.981068,98.726409 M351.031273,98.726409 L346.00699,98.726409 C345.890604,98.726409 345.797167,98.6333014 345.797167,98.5173254 C345.797167,98.4029828 345.890604,98.3082418 346.00699,98.3082418 L351.031273,98.3082418 C351.147659,98.3082418 351.241096,98.4029828 351.241096,98.5173254 C351.241096,98.6333014 351.147659,98.726409 351.031273,98.726409 M361.081478,98.726409 L356.057195,98.726409 C355.940808,98.726409 355.847372,98.6333014 355.847372,98.5173254 C355.847372,98.4029828 355.940808,98.3082418 356.057195,98.3082418 L361.081478,98.3082418 C361.197864,98.3082418 361.291301,98.4029828 361.291301,98.5173254 C361.291301,98.6333014 361.197864,98.726409 361.081478,98.726409 M371.131683,98.726409 L366.1074,98.726409 C365.991013,98.726409 365.897577,98.6333014 365.897577,98.5173254 C365.897577,98.4029828 365.991013,98.3082418 366.1074,98.3082418 L371.131683,98.3082418 C371.248069,98.3082418 371.341506,98.4029828 371.341506,98.5173254 C371.341506,98.6333014 371.248069,98.726409 371.131683,98.726409 M381.181888,98.726409 L376.157605,98.726409 C376.041218,98.726409 375.947781,98.6333014 375.947781,98.5173254 C375.947781,98.4029828 376.041218,98.3082418 376.157605,98.3082418 L381.181888,98.3082418 C381.298274,98.3082418 381.391711,98.4029828 381.391711,98.5173254 C381.391711,98.6333014 381.298274,98.726409 381.181888,98.726409 M391.232092,98.726409 L386.20781,98.726409 C386.091423,98.726409 385.997986,98.6333014 385.997986,98.5173254 C385.997986,98.4029828 386.091423,98.3082418 386.20781,98.3082418 L391.232092,98.3082418 C391.348479,98.3082418 391.441916,98.4029828 391.441916,98.5173254 C391.441916,98.6333014 391.348479,98.726409 391.232092,98.726409 M401.282297,98.726409 L396.258015,98.726409 C396.141628,98.726409 396.048191,98.6333014 396.048191,98.5173254 C396.048191,98.4029828 396.141628,98.3082418 396.258015,98.3082418 L401.282297,98.3082418 C401.398684,98.3082418 401.492121,98.4029828 401.492121,98.5173254 C401.492121,98.6333014 401.398684,98.726409 401.282297,98.726409 M411.332502,98.726409 L406.308219,98.726409 C406.191833,98.726409 406.098396,98.6333014 406.098396,98.5173254 C406.098396,98.4029828 406.191833,98.3082418 406.308219,98.3082418 L411.332502,98.3082418 C411.448889,98.3082418 411.542326,98.4029828 411.542326,98.5173254 C411.542326,98.6333014 411.448889,98.726409 411.332502,98.726409 M419.095962,98.726409 L416.358424,98.726409 C416.242038,98.726409 416.148601,98.6333014 416.148601,98.5173254 C416.148601,98.4029828 416.242038,98.3082418 416.358424,98.3082418 L418.886139,98.3082418 L418.886139,96.2386406 C418.886139,96.1226646 418.979576,96.029557 419.095962,96.029557 C419.212348,96.029557 419.305785,96.1226646 419.305785,96.2386406 L419.305785,98.5173254 C419.305785,98.6333014 419.212348,98.726409 419.095962,98.726409 M281.743708,104.793101 C281.627321,104.793101 281.533884,104.699993 281.533884,104.584017 L281.533884,99.5774446 C281.533884,99.4614686 281.627321,99.368361 281.743708,99.368361 C281.858455,99.368361 281.951892,99.4614686 281.951892,99.5774446 L281.951892,104.584017 C281.951892,104.699993 281.858455,104.793101 281.743708,104.793101 M281.743708,114.807879 C281.627321,114.807879 281.533884,114.714772 281.533884,114.598796 L281.533884,109.59059 C281.533884,109.476247 281.627321,109.38314 281.743708,109.38314 C281.858455,109.38314 281.951892,109.476247 281.951892,109.59059 L281.951892,114.598796 C281.951892,114.714772 281.858455,114.807879 281.743708,114.807879 M281.743708,124.822658 C281.627321,124.822658 281.533884,124.727917 281.533884,124.613574 L281.533884,119.605368 C281.533884,119.491026 281.627321,119.397918 281.743708,119.397918 C281.858455,119.397918 281.951892,119.491026 281.951892,119.605368 L281.951892,124.613574 C281.951892,124.727917 281.858455,124.822658 281.743708,124.822658 M281.743708,134.837436 C281.627321,134.837436 281.533884,134.742695 281.533884,134.628353 L281.533884,129.620147 C281.533884,129.505804 281.627321,129.412697 281.743708,129.412697 C281.858455,129.412697 281.951892,129.505804 281.951892,129.620147 L281.951892,134.628353 C281.951892,134.742695 281.858455,134.837436 281.743708,134.837436 M281.743708,144.852215 C281.627321,144.852215 281.533884,144.759107 281.533884,144.643131 L281.533884,139.636559 C281.533884,139.520583 281.627321,139.427475 281.743708,139.427475 C281.858455,139.427475 281.951892,139.520583 281.951892,139.636559 L281.951892,144.643131 C281.951892,144.759107 281.858455,144.852215 281.743708,144.852215 M281.743708,154.866993 C281.627321,154.866993 281.533884,154.773886 281.533884,154.65791 L281.533884,149.651337 C281.533884,149.535361 281.627321,149.442254 281.743708,149.442254 C281.858455,149.442254 281.951892,149.535361 281.951892,149.651337 L281.951892,154.65791 C281.951892,154.773886 281.858455,154.866993 281.743708,154.866993 M281.743708,164.881772 C281.627321,164.881772 281.533884,164.788664 281.533884,164.672688 L281.533884,159.664482 C281.533884,159.55014 281.627321,159.457032 281.743708,159.457032 C281.858455,159.457032 281.951892,159.55014 281.951892,159.664482 L281.951892,164.672688 C281.951892,164.788664 281.858455,164.881772 281.743708,164.881772 M281.743708,174.89655 C281.627321,174.89655 281.533884,174.801809 281.533884,174.687467 L281.533884,169.679261 C281.533884,169.564918 281.627321,169.471811 281.743708,169.471811 C281.858455,169.471811 281.951892,169.564918 281.951892,169.679261 L281.951892,174.687467 C281.951892,174.801809 281.858455,174.89655 281.743708,174.89655 M281.743708,184.911329 C281.627321,184.911329 281.533884,184.816588 281.533884,184.702245 L281.533884,179.694039 C281.533884,179.579697 281.627321,179.486589 281.743708,179.486589 C281.858455,179.486589 281.951892,179.579697 281.951892,179.694039 L281.951892,184.702245 C281.951892,184.816588 281.858455,184.911329 281.743708,184.911329 M281.743708,194.926107 C281.627321,194.926107 281.533884,194.831366 281.533884,194.717024 L281.533884,189.710451 C281.533884,189.594475 281.627321,189.501368 281.743708,189.501368 C281.858455,189.501368 281.951892,189.594475 281.951892,189.710451 L281.951892,194.717024 C281.951892,194.831366 281.858455,194.926107 281.743708,194.926107 M281.743708,204.940886 C281.627321,204.940886 281.533884,204.847778 281.533884,204.731802 L281.533884,199.72523 C281.533884,199.609254 281.627321,199.516146 281.743708,199.516146 C281.858455,199.516146 281.951892,199.609254 281.951892,199.72523 L281.951892,204.731802 C281.951892,204.847778 281.858455,204.940886 281.743708,204.940886 M281.743708,214.955664 C281.627321,214.955664 281.533884,214.862557 281.533884,214.746581 L281.533884,209.738375 C281.533884,209.624032 281.627321,209.530925 281.743708,209.530925 C281.858455,209.530925 281.951892,209.624032 281.951892,209.738375 L281.951892,214.746581 C281.951892,214.862557 281.858455,214.955664 281.743708,214.955664 M281.743708,224.970443 C281.627321,224.970443 281.533884,224.877335 281.533884,224.761359 L281.533884,219.753153 C281.533884,219.638811 281.627321,219.545703 281.743708,219.545703 C281.858455,219.545703 281.951892,219.638811 281.951892,219.753153 L281.951892,224.761359 C281.951892,224.877335 281.858455,224.970443 281.743708,224.970443 M281.743708,234.985221 C281.627321,234.985221 281.533884,234.892114 281.533884,234.776138 L281.533884,229.767932 C281.533884,229.653589 281.627321,229.560482 281.743708,229.560482 C281.858455,229.560482 281.951892,229.653589 281.951892,229.767932 L281.951892,234.776138 C281.951892,234.892114 281.858455,234.985221 281.743708,234.985221 M281.743708,245 C281.627321,245 281.533884,244.906892 281.533884,244.790916 L281.533884,239.784344 C281.533884,239.668368 281.627321,239.57526 281.743708,239.57526 C281.858455,239.57526 281.951892,239.668368 281.951892,239.784344 L281.951892,244.790916 C281.951892,244.906892 281.858455,245 281.743708,245" id="Fill-130" fill="#A9ABAD" mask="url(#mask-4)"></path>
            </g>
        </g>
    </g>
</svg>